<svg width="32" height="14" viewBox="0 0 32 14" fill="none" xmlns="http://www.w3.org/2000/svg">
<path d="M25.94 4.21914L27.56 9.44914H27.59L29.21 4.21914H30.61L28.2 10.9891C27.64 12.5391 27.01 13.0491 25.68 13.0491C25.58 13.0491 25.24 13.0491 25.15 13.0191V11.9591L25.55 11.9791C26.15 11.9791 26.5 11.7191 26.71 11.0591L26.83 10.6591L24.51 4.21914H25.94ZM7.4 3.42914C7.71 3.45914 8.6 3.54914 9.16 4.38914C9.1 4.42914 8.1 4.99914 8.1 6.21914C8.11 7.66914 9.37 8.15914 9.39 8.16914C9.37 8.20914 9.19 8.85914 8.73 9.52914C8.33 10.1191 7.91 10.6991 7.26 10.7091C6.62 10.7191 6.41 10.3291 5.68 10.3291C4.95 10.3291 4.71 10.6991 4.11 10.7291C3.48 10.7391 3 10.0891 2.6 9.49914C1.77 8.30914 1.15 6.13914 2 4.66914C2.1952 4.31469 2.47971 4.01746 2.82529 3.80695C3.17087 3.59645 3.5655 3.47999 3.97 3.46914C4.6 3.45914 5.17 3.87914 5.55 3.87914C5.93 3.87914 6.6 3.37914 7.38 3.42914H7.4ZM21.4 4.13914C22.97 4.13914 24 4.95914 24 6.23914V10.6391H22.73V9.59914H22.7C22.4951 9.95023 22.1994 10.2396 21.8439 10.4367C21.4884 10.6338 21.0863 10.7314 20.68 10.7191C19.4 10.7191 18.51 9.95914 18.51 8.81914C18.51 7.68914 19.38 7.03914 20.97 6.93914L22.67 6.83914V6.33914C22.67 5.61914 22.21 5.22914 21.37 5.22914C20.67 5.22914 20.17 5.58914 20.07 6.12914H18.83C18.87 4.97914 19.95 4.14914 21.4 4.14914V4.13914ZM15.27 1.78914C16.98 1.78914 18.17 2.96914 18.17 4.68914C18.1888 5.0806 18.1252 5.47165 17.9833 5.83697C17.8414 6.2023 17.6244 6.53378 17.3464 6.80996C17.0683 7.08614 16.7354 7.30087 16.3691 7.44025C16.0028 7.57964 15.6113 7.64059 15.22 7.61914H13.32V10.6491H11.96V1.78914H15.26H15.27ZM22.67 7.73914L21.15 7.83914C20.3 7.89914 19.85 8.21914 19.85 8.76914C19.85 9.31914 20.31 9.66914 21.05 9.66914C21.97 9.66914 22.68 9.06914 22.68 8.23914V7.73914H22.67ZM14.91 2.93914H13.33V6.46914H14.9C16.1 6.46914 16.77 5.81914 16.77 4.69914C16.77 3.58914 16.09 2.94914 14.91 2.94914V2.93914ZM7.4 1.11914C7.46 1.68914 7.24 2.24914 6.9 2.65914C6.56 3.05914 6.02 3.38914 5.48 3.33914C5.41 2.78914 5.68 2.20914 5.98 1.85914C6.33 1.43914 6.92 1.14914 7.4 1.11914Z" fill="white"/>
</svg>
