<svg width="7" height="4" viewBox="0 0 7 4" fill="none" xmlns="http://www.w3.org/2000/svg">
<path fill-rule="evenodd" clip-rule="evenodd" d="M5.53211 0.540697C5.5673 0.505503 5.60909 0.477585 5.65507 0.458538C5.70105 0.439491 5.75034 0.429687 5.80011 0.429688C5.84988 0.429688 5.89917 0.439491 5.94515 0.458538C5.99113 0.477585 6.03292 0.505503 6.06811 0.540697C6.1033 0.575891 6.13122 0.617673 6.15027 0.663656C6.16932 0.70964 6.17912 0.758925 6.17912 0.808697C6.17912 0.858469 6.16932 0.907754 6.15027 0.953737C6.13122 0.999721 6.1033 1.0415 6.06811 1.0767L3.68411 3.4607C3.649 3.49586 3.6073 3.52376 3.5614 3.54279C3.5155 3.56183 3.4663 3.57162 3.41661 3.57162C3.36692 3.57162 3.31772 3.56183 3.27182 3.54279C3.22592 3.52376 3.18422 3.49586 3.14911 3.4607L0.76511 1.0767C0.69895 1.00478 0.663127 0.910083 0.665118 0.812382C0.667109 0.714681 0.706761 0.621525 0.775796 0.552361C0.84483 0.483197 0.937912 0.443371 1.03561 0.441198C1.13331 0.439025 1.22807 0.474671 1.30011 0.540697L3.41611 2.6567L5.53211 0.540697Z" fill="#0A2540"/>
</svg>
