<svg width="90" height="243" viewBox="0 0 90 243" fill="none" xmlns="http://www.w3.org/2000/svg">
<path d="M67.8822 42.6719V53.141C67.8822 66.4748 61.2151 73.1418 47.8809 73.1418H1.8623" stroke="url(#paint0_linear_4326_2)" stroke-width="2" stroke-dasharray="88.95 88.95"/>
<rect x="47.1025" y="0.632812" width="41.55" height="41.55" rx="7.5" fill="#F6F9FC"/>
<rect x="47.1025" y="0.632812" width="41.55" height="41.55" rx="7.5" stroke="#C4CCD8"/>
<path d="M72.2296 18.7466C72.2296 18.5736 72.1938 18.4026 72.1244 18.2446L70.2282 13.9193C70.0325 13.4731 69.5958 13.1855 69.114 13.1855H59.4255C58.752 13.1855 58.2061 13.7388 58.2061 14.4213V23.0719C58.2061 23.7544 58.752 24.3077 59.4255 24.3077H69.114C69.5958 24.3077 70.0325 24.0202 70.2282 23.5739L72.1244 19.2487C72.1938 19.0906 72.2296 18.9196 72.2296 18.7466Z" stroke="#C4CCD8" stroke-width="1.83333"/>
<path d="M63.5254 24.0669C63.5254 24.2399 63.5612 24.4109 63.6306 24.569L65.5268 28.8942C65.7225 29.3405 66.1592 29.628 66.641 29.628H76.3295C77.003 29.628 77.549 29.0747 77.549 28.3922V19.7417C77.549 19.0592 77.003 18.5059 76.3295 18.5059H66.641C66.1592 18.5059 65.7225 18.7934 65.5268 19.2396L63.6306 23.5649C63.5612 23.7229 63.5254 23.894 63.5254 24.0669Z" stroke="#C4CCD8" stroke-width="1.83333"/>
<path d="M67.8822 200.143V93.1426C67.8822 79.8092 61.2151 73.1426 47.8809 73.1426H1.8623" stroke="url(#paint1_linear_4326_2)" stroke-width="2" stroke-dasharray="185.48 185.48"/>
<rect x="47.1025" y="200.633" width="41.55" height="41.55" rx="7.5" fill="#F6F9FC"/>
<rect x="47.1025" y="200.633" width="41.55" height="41.55" rx="7.5" stroke="#C4CCD8"/>
<path d="M69.79 218.528L65.0778 219.554L59.1877 220.775C58.5987 220.921 58.2061 221.41 58.2061 221.996V229.858C58.2061 230.542 58.746 231.079 59.4332 231.079H71.2625V219.749C71.2625 218.968 70.5753 218.382 69.79 218.528Z" stroke="#C4CCD8" stroke-width="1.83333"/>
<path d="M76.027 211.759L65.4739 213.986C64.8848 214.131 64.4922 214.616 64.4922 215.197V219.603V231.079H76.3215C77.0087 230.982 77.5486 230.45 77.5486 229.772V212.969C77.5486 212.194 76.8123 211.613 76.027 211.759Z" stroke="#C4CCD8" stroke-width="1.83333"/>
<defs>
<linearGradient id="paint0_linear_4326_2" x1="0.86224" y1="41.6718" x2="1.8623" y2="41.6718" gradientUnits="userSpaceOnUse">
<stop stop-color="#1DF5E9"/>
<stop offset="1" stop-color="#00D924"/>
</linearGradient>
<linearGradient id="paint1_linear_4326_2" x1="0.86224" y1="72.1426" x2="1.8623" y2="72.1426" gradientUnits="userSpaceOnUse">
<stop stop-color="#1DF5E9"/>
<stop offset="1" stop-color="#00D924"/>
</linearGradient>
</defs>
</svg>
