<svg width="20" height="14" viewBox="0 0 20 14" fill="none" xmlns="http://www.w3.org/2000/svg">
<path d="M15.9502 2H2.9502C1.84563 2 0.950195 2.89543 0.950195 4V12C0.950195 13.1046 1.84563 14 2.9502 14H15.9502C17.0548 14 17.9502 13.1046 17.9502 12V4C17.9502 2.89543 17.0548 2 15.9502 2Z" fill="#E6EBF1"/>
<path d="M14.9502 4H3.9502C3.39791 4 2.9502 4.44772 2.9502 5C2.9502 5.55228 3.39791 6 3.9502 6H14.9502C15.5025 6 15.9502 5.55228 15.9502 5C15.9502 4.44772 15.5025 4 14.9502 4Z" fill="white"/>
<path d="M15.4502 9C17.9355 9 19.9502 6.98528 19.9502 4.5C19.9502 2.01472 17.9355 0 15.4502 0C12.9649 0 10.9502 2.01472 10.9502 4.5C10.9502 6.98528 12.9649 9 15.4502 9Z" fill="#B4C2D0"/>
<path d="M13.4504 5.96V3.03H12.9504C12.9104 3.36 12.7504 3.49 12.3704 3.53L12.1304 3.54V4.05H12.7904V5.95H13.4604L13.4504 5.96ZM15.0604 6C15.7104 6 16.1304 5.6 16.1304 5.13C16.1304 4.77 15.9304 4.56 15.6704 4.46C15.792 4.40938 15.8954 4.32298 15.9669 4.21226C16.0383 4.10153 16.0744 3.97171 16.0704 3.84C16.0704 3.36 15.6904 3 15.0804 3C14.4504 3 14.0604 3.4 13.9904 3.92L14.6104 3.99C14.6504 3.74 14.8104 3.56 15.0504 3.56C15.2804 3.56 15.4204 3.69 15.4204 3.88C15.4204 4.1 15.2504 4.2 15.0004 4.2H14.7404V4.74H15.0104C15.2804 4.74 15.4704 4.84 15.4704 5.07C15.4704 5.31 15.2904 5.44 15.0504 5.44C14.8004 5.44 14.6104 5.28 14.5704 4.99L13.9204 5.09C14.0004 5.69 14.4604 6 15.0604 6ZM17.5904 6C18.1904 6 18.6604 5.57 18.6604 4.98C18.6604 4.42 18.3004 4 17.7104 4C17.5104 4 17.3404 4.07 17.2304 4.16L17.2804 3.62H18.4804V3.04H16.7804L16.6404 4.64L17.2404 4.71C17.3104 4.61 17.4404 4.53 17.6104 4.53C17.8704 4.53 18.0304 4.73 18.0304 4.99C18.0304 5.26 17.8304 5.44 17.5804 5.44C17.3304 5.44 17.1604 5.27 17.1204 5L16.4704 5.1C16.5604 5.68 16.9904 6 17.5904 6Z" fill="white"/>
</svg>
