<svg xmlns="http://www.w3.org/2000/svg" xml:space="preserve" width="14" height="16" shape-rendering="geometricPrecision" text-rendering="geometricPrecision" image-rendering="optimizeQuality" fill-rule="evenodd" clip-rule="evenodd"><path fill="#1D3944" d="M3.85 15.8h6.53c1.63 0 1.67-.01 1.74-.03.06-.01.16-.05.28-.11a2.13 2.13 0 0 0 .84-.78c.12-.17.19-.34.24-.49.04-.16.06-.29.07-1.37V8.91c0-1.03 0-1.07-.02-1.13a1.06 1.06 0 0 0-.12-.24.8.8 0 0 0-.21-.24c-.09-.08-.2-.15-.3-.19-.1-.04-.2-.05-.34-.06l-.42-.01-.09-.01v-.41l-.04-1.72a4.94 4.94 0 0 0-.37-1.7A5.54 5.54 0 0 0 10 1.19 6.02 6.02 0 0 0 8.46.42 4.55 4.55 0 0 0 6.98.2a5.06 5.06 0 0 0-3.36 1.27 5.33 5.33 0 0 0-1.08 1.32c-.13.24-.22.49-.31.73a4.56 4.56 0 0 0-.26 1.62L1.96 6.7v.37h-.12c-.13 0-.37 0-.55.02a.63.63 0 0 0-.35.1.83.83 0 0 0-.24.22.88.88 0 0 0-.18.29c-.04.1-.06.2-.07.35v1.39a451.63 451.63 0 0 0 .05 4.93 1.95 1.95 0 0 0 .62.96 1.62 1.62 0 0 0 .82.43c.12.02.24.04 1.91.04zm1.12-8.74h4.01l1 .01.01-.32L10 5.4c.01-.39.01-.54-.02-.69a4.07 4.07 0 0 0-.32-.9 3.8 3.8 0 0 0-.65-.85 2.56 2.56 0 0 0-.46-.33 3.52 3.52 0 0 0-1.73-.45c-.21 0-.4.03-.59.08A3.1 3.1 0 0 0 4.3 3.8a2.3 2.3 0 0 0-.28.94c-.02.16-.04.34-.05.66v1.66h1zm1.02 5.14a37.5 37.5 0 0 1 0-1.5c.01-.39.03-.47.06-.55a.75.75 0 0 1 .14-.24c.08-.09.18-.18.29-.24.11-.07.22-.11.34-.14.12-.02.24-.02.35-.02.1.01.18.03.26.07l.23.17a.9.9 0 0 1 .18.21c.04.08.08.18.1.29.03.11.04.23.05.59v1.31c-.01.35-.03.46-.05.55l-.11.25a.61.61 0 0 1-.15.17 1.64 1.64 0 0 1-.43.23.57.57 0 0 1-.22.04c-.07 0-.14 0-.22-.02a.98.98 0 0 1-.28-.08.87.87 0 0 1-.45-.47c-.05-.11-.08-.21-.09-.62z"/></svg>