<svg width="20" height="20" viewBox="0 0 20 20" fill="none" xmlns="http://www.w3.org/2000/svg">
<path d="M10 0C12.6522 0 15.1957 1.05357 17.0711 2.92893C18.9464 4.8043 20 7.34784 20 10C20 12.6522 18.9464 15.1957 17.0711 17.0711C15.1957 18.9464 12.6522 20 10 20C7.34784 20 4.8043 18.9464 2.92893 17.0711C1.05357 15.1957 0 12.6522 0 10C0 7.34784 1.05357 4.8043 2.92893 2.92893C4.8043 1.05357 7.34784 0 10 0ZM13.3 6.11H4.34C4.22994 6.11 4.12438 6.15372 4.04655 6.23155C3.96872 6.30938 3.925 6.41494 3.925 6.525C3.925 6.63507 3.96872 6.74062 4.04655 6.81845C4.12438 6.89628 4.22994 6.94 4.34 6.94H13.28C14.0158 6.98334 14.7072 7.30617 15.2128 7.84245C15.7185 8.37873 16.0001 9.08794 16.0001 9.825C16.0001 10.5621 15.7185 11.2713 15.2128 11.8076C14.7072 12.3438 14.0158 12.6667 13.28 12.71H7.65C7.53994 12.71 7.43438 12.7537 7.35655 12.8316C7.27872 12.9094 7.235 13.0149 7.235 13.125C7.235 13.2351 7.27872 13.3406 7.35655 13.4184C7.43438 13.4963 7.53994 13.54 7.65 13.54H13.29C14.2753 13.54 15.2202 13.1486 15.9169 12.4519C16.6136 11.7552 17.005 10.8103 17.005 9.825C17.005 8.83972 16.6136 7.8948 15.9169 7.1981C15.2202 6.5014 14.2753 6.11 13.29 6.11H13.3ZM13.3 7.76C12.8922 7.75802 12.4929 7.87715 12.1528 8.1023C11.8127 8.32745 11.5471 8.64848 11.3897 9.02472C11.2322 9.40096 11.19 9.81546 11.2684 10.2157C11.3467 10.616 11.5421 10.984 11.8298 11.2731C12.1175 11.5622 12.4845 11.7594 12.8844 11.8397C13.2843 11.92 13.699 11.8797 14.076 11.7241C14.453 11.5685 14.7753 11.3045 15.0021 10.9655C15.2289 10.6265 15.35 10.2279 15.35 9.82C15.35 8.69 14.43 7.76 13.29 7.76H13.3ZM10.47 11.06H5.77C5.65993 11.06 5.55438 11.1037 5.47655 11.1816C5.39872 11.2594 5.355 11.3649 5.355 11.475C5.355 11.5851 5.39872 11.6906 5.47655 11.7684C5.55438 11.8463 5.65993 11.89 5.77 11.89H10.47C10.5801 11.89 10.6856 11.8463 10.7634 11.7684C10.8413 11.6906 10.885 11.5851 10.885 11.475C10.885 11.3649 10.8413 11.2594 10.7634 11.1816C10.6856 11.1037 10.5801 11.06 10.47 11.06ZM13.3 8.6C13.4715 8.58455 13.6444 8.605 13.8076 8.66004C13.9708 8.71509 14.1207 8.80352 14.2478 8.9197C14.3749 9.03589 14.4764 9.17728 14.5459 9.33487C14.6154 9.49245 14.6512 9.66278 14.6512 9.835C14.6512 10.0072 14.6154 10.1775 14.5459 10.3351C14.4764 10.4927 14.3749 10.6341 14.2478 10.7503C14.1207 10.8665 13.9708 10.9549 13.8076 11.01C13.6444 11.065 13.4715 11.0854 13.3 11.07C12.9916 11.0422 12.7048 10.9001 12.4959 10.6716C12.2871 10.443 12.1712 10.1446 12.1712 9.835C12.1712 9.52539 12.2871 9.22698 12.4959 8.99844C12.7048 8.7699 12.9916 8.62778 13.3 8.6ZM10 9.4H3.41C3.29994 9.4 3.19438 9.44372 3.11655 9.52155C3.03872 9.59938 2.995 9.70494 2.995 9.815C2.995 9.92506 3.03872 10.0306 3.11655 10.1084C3.19438 10.1863 3.29994 10.23 3.41 10.23H10.01C10.23 10.23 10.41 10.04 10.41 9.81C10.4074 9.703 10.363 9.60127 10.2864 9.52653C10.2098 9.45179 10.107 9.40997 10 9.41V9.4ZM10.47 7.75H6.24C6.12993 7.75 6.02438 7.79372 5.94655 7.87155C5.86872 7.94938 5.825 8.05494 5.825 8.165C5.825 8.27506 5.86872 8.38062 5.94655 8.45845C6.02438 8.53628 6.12993 8.58 6.24 8.58H10.47C10.5801 8.58 10.6856 8.53628 10.7634 8.45845C10.8413 8.38062 10.885 8.27506 10.885 8.165C10.885 8.05494 10.8413 7.94938 10.7634 7.87155C10.6856 7.79372 10.5801 7.75 10.47 7.75Z" fill="white"/>
</svg>
