<svg width="10" height="11" viewBox="0 0 10 11" fill="none" xmlns="http://www.w3.org/2000/svg">
<path d="M4 8C5.933 8 7.5 6.433 7.5 4.5C7.5 2.567 5.933 1 4 1C2.067 1 0.5 2.567 0.5 4.5C0.5 6.433 2.067 8 4 8Z" stroke="#62788D"/>
<path d="M6.14976 6.65C6.34976 6.45 6.64976 6.45 6.84976 6.65L8.96976 8.77C9.02707 8.81298 9.07448 8.86778 9.10877 8.93067C9.14305 8.99357 9.16343 9.0631 9.16851 9.13456C9.17358 9.20601 9.16325 9.27772 9.1382 9.34484C9.11315 9.41195 9.07397 9.4729 9.02332 9.52355C8.97266 9.57421 8.91172 9.61339 8.8446 9.63844C8.77749 9.66348 8.70578 9.67382 8.63432 9.66874C8.56286 9.66366 8.49333 9.64329 8.43044 9.609C8.36754 9.57471 8.31275 9.52731 8.26976 9.47L6.14976 7.35C6.05815 7.25654 6.00684 7.13088 6.00684 7C6.00684 6.86912 6.05815 6.74346 6.14976 6.65Z" fill="#62788D"/>
</svg>
