<svg width="18" height="13" viewBox="0 0 18 13" fill="none" xmlns="http://www.w3.org/2000/svg">
<path d="M2.10018 1.17969H15.9002C16.6902 1.17969 17.3202 1.80969 17.3202 2.58969V11.3297C17.3202 12.1097 16.6902 12.7497 15.9102 12.7497H2.09018C1.31018 12.7497 0.680176 12.1097 0.680176 11.3297V2.59969C0.680176 1.80969 1.30018 1.17969 2.09018 1.17969H2.10018Z" fill="white" stroke="black" stroke-opacity="0.2" stroke-width="0.5"/>
<path d="M2.4802 5.39023C2.07752 5.17005 1.64697 5.00523 1.2002 4.90023L1.2202 4.81023H3.1502C3.4202 4.81023 3.6302 4.91023 3.7002 5.18023L4.1202 7.19023L4.2502 7.79023L5.4302 4.82023H6.7102L4.8102 9.17023H3.5502L2.4802 5.37023V5.39023ZM7.6502 9.19023H6.4502L7.2002 4.82023H8.4002L7.6502 9.19023ZM12.0202 4.93023L11.8602 5.88023L11.7502 5.83023C11.5402 5.74023 11.2502 5.65023 10.8502 5.66023C10.3702 5.66023 10.1602 5.85023 10.1502 6.04023C10.1502 6.24023 10.4202 6.37023 10.8302 6.58023C11.5302 6.88023 11.8502 7.27023 11.8502 7.77023C11.8402 8.67023 11.0202 9.25023 9.7502 9.25023C9.2102 9.25023 8.6902 9.15023 8.4102 9.03023L8.5702 8.04023L8.7402 8.11023C9.1302 8.28023 9.3802 8.35023 9.8702 8.35023C10.2102 8.35023 10.5802 8.21023 10.5902 7.92023C10.5902 7.73023 10.4302 7.59023 9.9602 7.38023C9.5102 7.16023 8.9002 6.81023 8.9102 6.18023C8.9102 5.34023 9.76019 4.74023 10.9402 4.74023C11.4102 4.74023 11.7902 4.84023 12.0202 4.93023ZM13.6202 7.65023H14.6202L14.3502 6.38023L14.2602 6.00023L14.1102 6.43023L13.6302 7.65023H13.6202ZM15.1202 4.82023L16.0802 9.19023H14.9602L14.8202 8.54023H13.2802L13.0202 9.19023H11.7602L13.5502 5.19023C13.6802 4.89023 13.8902 4.83023 14.1802 4.83023H15.1102V4.82023H15.1202Z" fill="#1434CB"/>
</svg>
