<svg width="61" height="26" viewBox="0 0 61 26" fill="none" xmlns="http://www.w3.org/2000/svg">
<path fill-rule="evenodd" clip-rule="evenodd" d="M59.7831 14.3933H51.7231C51.9131 16.3233 53.3231 16.9433 54.9231 16.9433C56.5631 16.9433 57.8831 16.5733 58.9731 15.9933V19.3133C57.5898 20.1092 56.0071 20.491 54.4131 20.4133C50.4031 20.4133 47.5831 17.9133 47.5831 12.9333C47.5831 8.74328 49.9731 5.41328 53.8831 5.41328C57.8031 5.41328 59.8431 8.69328 59.8431 12.9133C59.8431 13.3133 59.8031 14.1733 59.7831 14.3933ZM53.8631 8.77328C52.8331 8.77328 51.6931 9.50328 51.6931 11.3533H55.9431C55.9431 9.50328 54.8731 8.77328 53.8631 8.77328ZM41.0931 20.4133C39.6531 20.4133 38.7731 19.8133 38.1931 19.3733L38.1731 24.0033L34.0531 24.8733V5.68328H37.8131L37.8931 6.70328C38.7652 5.87607 39.9211 5.41443 41.1231 5.41328C44.0231 5.41328 46.7431 8.01328 46.7431 12.8133C46.7431 18.0433 44.0431 20.4133 41.0931 20.4133ZM40.1431 9.06328C39.1931 9.06328 38.6031 9.40328 38.1731 9.87328L38.1931 15.9933C38.5931 16.4333 39.1731 16.7733 40.1431 16.7733C41.6631 16.7733 42.6831 15.1233 42.6831 12.9033C42.6831 10.7533 41.6431 9.06328 40.1431 9.06328ZM28.3831 5.68328H32.5131V20.1233H28.3831V5.68328ZM28.3831 0.983281L32.5131 0.113281V3.47328L28.3831 4.35328V0.993281V0.983281ZM24.0631 10.3333V20.1233H19.9431V5.68328H23.6431L23.7631 6.90328C24.7631 5.13328 26.8331 5.49328 27.3831 5.68328V9.47328C26.8631 9.30328 25.0931 9.04328 24.0631 10.3333ZM15.5131 15.0533C15.5131 17.4833 18.1131 16.7333 18.6331 16.5133V19.8733C18.0831 20.1733 17.0931 20.4133 15.7431 20.4133C15.1804 20.4297 14.6203 20.3315 14.0968 20.1246C13.5733 19.9177 13.0974 19.6065 12.6979 19.2099C12.2985 18.8132 11.9839 18.3395 11.7734 17.8175C11.5628 17.2955 11.4606 16.736 11.4731 16.1733L11.4831 3.00328L15.5031 2.14328V5.68328H18.6431V9.21328H15.5131V15.0633V15.0533ZM10.6031 15.7533C10.6031 18.7233 8.29307 20.4133 4.87307 20.4133C3.33838 20.4121 1.82032 20.0956 0.413066 19.4833V15.5533C1.79307 16.3033 3.51307 16.8633 4.87307 16.8633C5.79307 16.8633 6.40307 16.6233 6.40307 15.8633C6.40307 13.8833 0.143066 14.6233 0.143066 10.0633C0.143066 7.15328 2.42307 5.41328 5.76307 5.41328C7.12307 5.41328 8.48307 5.61328 9.85307 6.16328V10.0433C8.58702 9.37697 7.18341 9.01408 5.75307 8.98328C4.89307 8.98328 4.31307 9.23328 4.31307 9.88328C4.31307 11.7333 10.6031 10.8533 10.6031 15.7633V15.7533Z" fill="#0A2540"/>
</svg>
