<svg width="60" height="26" viewBox="0 0 60 26" fill="none" xmlns="http://www.w3.org/2000/svg">
<path fill-rule="evenodd" clip-rule="evenodd" d="M59.64 15.2487H51.58C51.77 17.1787 53.18 17.7987 54.78 17.7987C56.42 17.7987 57.74 17.4288 58.83 16.8488V20.1688C57.4468 20.9647 55.864 21.3465 54.27 21.2687C50.26 21.2687 47.44 18.7687 47.44 13.7887C47.44 9.59875 49.83 6.26875 53.74 6.26875C57.66 6.26875 59.7 9.54875 59.7 13.7688C59.7 14.1687 59.66 15.0287 59.64 15.2487ZM53.72 9.62875C52.69 9.62875 51.55 10.3587 51.55 12.2087H55.8C55.8 10.3587 54.73 9.62875 53.72 9.62875ZM40.95 21.2687C39.51 21.2687 38.63 20.6688 38.05 20.2288L38.03 24.8587L33.91 25.7288V6.53875H37.67L37.75 7.55875C38.6221 6.73154 39.778 6.2699 40.98 6.26875C43.88 6.26875 46.6 8.86875 46.6 13.6687C46.6 18.8988 43.9 21.2687 40.95 21.2687ZM40 9.91875C39.05 9.91875 38.46 10.2587 38.03 10.7288L38.05 16.8488C38.45 17.2887 39.03 17.6287 40 17.6287C41.52 17.6287 42.54 15.9788 42.54 13.7587C42.54 11.6087 41.5 9.91875 40 9.91875ZM28.24 6.53875H32.37V20.9788H28.24V6.53875ZM28.24 1.83875L32.37 0.96875V4.32875L28.24 5.20875V1.84875V1.83875ZM23.92 11.1888V20.9788H19.8V6.53875H23.5L23.62 7.75875C24.62 5.98875 26.69 6.34875 27.24 6.53875V10.3287C26.72 10.1587 24.95 9.89875 23.92 11.1888ZM15.37 15.9087C15.37 18.3387 17.97 17.5887 18.49 17.3687V20.7288C17.94 21.0287 16.95 21.2687 15.6 21.2687C15.0373 21.2852 14.4772 21.1869 13.9537 20.9801C13.4302 20.7732 12.9543 20.462 12.5549 20.0653C12.1554 19.6687 11.8409 19.195 11.6303 18.6729C11.4197 18.1509 11.3176 17.5915 11.33 17.0287L11.34 3.85875L15.36 2.99875V6.53875H18.5V10.0688H15.37V15.9187V15.9087ZM10.46 16.6088C10.46 19.5788 8.15 21.2687 4.73 21.2687C3.19532 21.2676 1.67725 20.951 0.27 20.3388V16.4087C1.65 17.1587 3.37 17.7188 4.73 17.7188C5.65 17.7188 6.26 17.4788 6.26 16.7188C6.26 14.7388 0 15.4788 0 10.9187C0 8.00875 2.28 6.26875 5.62 6.26875C6.98 6.26875 8.34 6.46875 9.71 7.01875V10.8988C8.44396 10.2324 7.04035 9.86955 5.61 9.83875C4.75 9.83875 4.17 10.0888 4.17 10.7388C4.17 12.5888 10.46 11.7087 10.46 16.6187V16.6088Z" fill="#0A2540"/>
</svg>
