<svg width="121" height="97" viewBox="0 0 121 97" fill="none" xmlns="http://www.w3.org/2000/svg">
<path d="M32.7921 51.2036L32.884 62.9911C32.8893 63.522 32.7889 64.0486 32.5886 64.5403C32.3883 65.032 32.0921 65.4789 31.7173 65.8549L17.2216 80.3506C16.659 80.9132 15.8959 81.2293 15.1003 81.2293C14.3046 81.2293 13.5416 80.9132 12.9789 80.3506L1.66524 69.0369C1.10263 68.4743 0.786552 67.7112 0.786553 66.9156C0.786554 66.1199 1.10263 65.3568 1.66524 64.7942L16.1609 50.2985C16.537 49.9237 16.9838 49.6276 17.4755 49.4272C17.9672 49.2269 18.4938 49.1265 19.0247 49.1318L30.8122 49.2237C31.3357 49.229 31.8362 49.4393 32.2064 49.8094C32.5766 50.1796 32.7869 50.6802 32.7921 51.2036ZM27.8282 54.1876C27.2656 53.625 26.5025 53.309 25.7069 53.309C24.9112 53.309 24.1482 53.625 23.5856 54.1876C23.0229 54.7502 22.7069 55.5133 22.7069 56.309C22.7069 57.1046 23.0229 57.8677 23.5856 58.4303C24.1482 58.9929 24.9112 59.309 25.7069 59.309C26.5025 59.309 27.2656 58.9929 27.8282 58.4303C28.3908 57.8677 28.7069 57.1046 28.7069 56.309C28.7069 55.5133 28.3908 54.7502 27.8282 54.1876Z" fill="#80E9FF"/>
<path d="M66.4 30.8295L74.8 39.0995C75.1791 39.4712 75.4805 39.9146 75.6865 40.4039C75.8926 40.8932 75.9991 41.4186 76 41.9495V62.4495C76 63.2452 75.6839 64.0082 75.1213 64.5709C74.5587 65.1335 73.7956 65.4495 73 65.4495H57C56.2044 65.4495 55.4413 65.1335 54.8787 64.5709C54.3161 64.0082 54 63.2452 54 62.4495V41.9495C54.0009 41.4186 54.1074 40.8932 54.3135 40.4039C54.5195 39.9146 54.8209 39.4712 55.2 39.0995L63.6 30.8295C63.9739 30.4631 64.4765 30.2578 65 30.2578C65.5235 30.2578 66.0261 30.4631 66.4 30.8295ZM65 36.4495C64.2044 36.4495 63.4413 36.7656 62.8787 37.3282C62.3161 37.8908 62 38.6539 62 39.4495C62 40.2452 62.3161 41.0082 62.8787 41.5708C63.4413 42.1335 64.2044 42.4495 65 42.4495C65.7956 42.4495 66.5587 42.1335 67.1213 41.5708C67.6839 41.0082 68 40.2452 68 39.4495C68 38.6539 67.6839 37.8908 67.1213 37.3282C66.5587 36.7656 65.7956 36.4495 65 36.4495Z" fill="#7A73FF"/>
</svg>
