<svg width="96" height="97" viewBox="0 0 96 97" fill="none" xmlns="http://www.w3.org/2000/svg">
<path d="M21.13 28.4492H37.87C39.66 28.4492 40.3 28.6392 40.95 28.9792C41.61 29.3292 42.12 29.8392 42.47 30.4992C42.81 31.1492 43 31.7992 43 33.5792V58.3192C43 60.1092 42.81 60.7492 42.47 61.3992C42.1284 62.0477 41.5985 62.5776 40.95 62.9192C40.3 63.2592 39.65 63.4492 37.87 63.4492H21.13C19.34 63.4492 18.7 63.2592 18.05 62.9192C17.4015 62.5776 16.8716 62.0477 16.53 61.3992C16.19 60.7492 16 60.0992 16 58.3192V33.5792C16 31.7892 16.19 31.1492 16.53 30.4992C16.88 29.8392 17.39 29.3292 18.05 28.9792C18.7 28.6392 19.35 28.4492 21.13 28.4492Z" fill="#80E9FF"/>
<path d="M45.9499 33.9792C46.6099 34.3292 47.1199 34.8392 47.4699 35.4992C47.8099 36.1492 47.9999 36.7992 47.9999 38.5792V63.3192C47.9999 65.1092 47.8099 65.7492 47.4699 66.3992C47.1284 67.0477 46.5985 67.5776 45.9499 67.9192C45.2999 68.2592 44.6499 68.4492 42.8699 68.4492H26.1299C24.3399 68.4492 23.6999 68.2592 23.0499 67.9192C22.4014 67.5776 21.8715 67.0477 21.5299 66.3992C21.1899 65.7492 20.9999 65.0992 20.9999 63.3192V48.4492C20.9999 45.4492 19.9999 41.4492 29.9999 42.4492C29.9999 40.4492 28.9999 33.4492 34.4999 33.4492H42.9999C44.7799 33.4492 45.2999 33.6392 45.9499 33.9792Z" fill="#7A73FF"/>
<mask id="mask0_7950_2015" style="mask-type:luminance" maskUnits="userSpaceOnUse" x="16" y="28" width="27" height="36">
<path d="M21.13 28.4492H37.87C39.66 28.4492 40.3 28.6392 40.95 28.9792C41.61 29.3292 42.12 29.8392 42.47 30.4992C42.81 31.1492 43 31.7992 43 33.5792V58.3192C43 60.1092 42.81 60.7492 42.47 61.3992C42.1284 62.0477 41.5985 62.5776 40.95 62.9192C40.3 63.2592 39.65 63.4492 37.87 63.4492H21.13C19.34 63.4492 18.7 63.2592 18.05 62.9192C17.4015 62.5776 16.8716 62.0477 16.53 61.3992C16.19 60.7492 16 60.0992 16 58.3192V33.5792C16 31.7892 16.19 31.1492 16.53 30.4992C16.88 29.8392 17.39 29.3292 18.05 28.9792C18.7 28.6392 19.35 28.4492 21.13 28.4492Z" fill="white"/>
</mask>
<g mask="url(#mask0_7950_2015)">
<path d="M45.9499 33.9792C46.6099 34.3292 47.1199 34.8392 47.4699 35.4992C47.8099 36.1492 47.9999 36.7992 47.9999 38.5792V63.3192C47.9999 65.1092 47.8099 65.7492 47.4699 66.3992C47.1284 67.0477 46.5985 67.5776 45.9499 67.9192C45.2999 68.2592 44.6499 68.4492 42.8699 68.4492H26.1299C24.3399 68.4492 23.6999 68.2592 23.0499 67.9192C22.4014 67.5776 21.8715 67.0477 21.5299 66.3992C21.1899 65.7492 20.9999 65.0992 20.9999 63.3192V48.4492C20.9999 45.4492 19.9999 41.4492 29.9999 42.4492C29.9999 40.4492 28.9999 33.4492 34.4999 33.4492H42.9999C44.7799 33.4492 45.2999 33.6392 45.9499 33.9792Z" fill="#0048E5"/>
</g>
</svg>
