<svg width="200" height="40" viewBox="0 0 200 40" fill="none" xmlns="http://www.w3.org/2000/svg">
<path d="M111.852 20.0004C111.852 26.5504 106.55 31.8524 99.9999 31.8524V20.0004H111.852ZM99.9999 8.14844V20.0004H88.1479C88.1479 13.4504 93.4499 8.14844 99.9999 8.14844Z" fill="#0166B1"/>
<path d="M99.9999 8.14844C106.55 8.14844 111.852 13.4504 111.852 19.9984H99.9999V8.14844ZM88.1479 19.9984H99.9999V31.8514C93.4499 31.8514 88.1479 26.5484 88.1479 19.9984Z" fill="white"/>
<path d="M100 8.148V8.798C106.176 8.798 111.202 13.823 111.202 20H111.851C111.851 13.455 106.546 8.148 100 8.148ZM100 31.202C93.824 31.202 88.798 26.177 88.798 20H88.148C88.148 26.545 93.454 31.852 100 31.852M100 0C88.955 0 80 8.955 80 20C80 31.045 88.955 40 100 40C111.045 40 120 31.045 120 20C120 8.955 111.045 0 100 0ZM118.7 20C118.7 30.327 110.328 38.7 100 38.7C89.672 38.7 81.3 30.327 81.3 20C81.3 9.673 89.673 1.3 100 1.3C110.327 1.3 118.7 9.673 118.7 20Z" fill="#6F6F6F"/>
<path d="M91.4528 10.3507C92.0928 9.68275 92.4538 8.91075 91.8158 8.17275C91.4678 7.77275 90.8828 7.68575 90.3998 7.88275L90.3508 7.90075L90.3668 7.85875C90.4378 7.66875 90.4838 7.06175 89.9628 6.64375C89.8376 6.54544 89.6941 6.47291 89.5406 6.43034C89.3872 6.38778 89.2268 6.37602 89.0688 6.39575C88.4688 6.45575 88.0068 6.86375 86.7508 8.25575C86.3128 8.74575 85.8908 9.24975 85.4868 9.76675L88.9398 13.0198C90.0838 11.7618 90.5498 11.2957 91.4528 10.3507ZM86.9478 9.55575C87.6438 8.70975 88.3818 7.94375 88.7168 7.64075C88.8218 7.54475 88.9368 7.45075 89.0768 7.41175C89.3038 7.34975 89.5368 7.50975 89.5908 7.74175C89.6438 7.97375 89.4968 8.19375 89.3338 8.37575C88.9658 8.78775 87.6168 10.1888 87.6168 10.1888L86.9468 9.55475L86.9478 9.55575ZM88.2998 10.8298C88.2998 10.8298 89.6128 9.44975 90.0418 9.00975C90.2118 8.83475 90.3218 8.72875 90.4388 8.67075C90.5908 8.59775 90.7558 8.58275 90.9048 8.68075C90.9744 8.72594 91.0285 8.79139 91.0598 8.86827C91.0911 8.94515 91.0981 9.02978 91.0798 9.11075C91.0368 9.30675 90.8748 9.49475 90.7398 9.63875L88.9998 11.4888L88.2998 10.8298ZM100.395 6.47175L101.5 4.01175L101.571 3.79375L101.551 4.02175L101.667 7.30775C102.063 7.34575 102.458 7.39775 102.85 7.46375L102.67 2.59575C102.121 2.53591 101.57 2.49355 101.019 2.46875L99.9298 5.15275L99.8918 5.35275L99.8518 5.15275L98.7638 2.46875C98.2138 2.49175 97.6638 2.53475 97.1118 2.59575L96.9318 7.46375C97.3248 7.39875 97.7198 7.34675 98.1158 7.30775L98.2318 4.02175L98.2118 3.79375L98.2818 4.01375L99.3878 6.47175H100.395ZM109.576 11.5598C109.848 11.8498 110.239 12.3158 110.459 12.5998L114.504 10.0487C114.256 9.72906 114.001 9.41498 113.739 9.10675L111.177 10.7887L111.003 10.9388L111.133 10.7487L112.265 8.50675L111.465 7.71175L109.205 8.83575L109.015 8.96475L109.166 8.79075L110.862 6.24775C110.551 5.98594 110.234 5.73186 109.911 5.48575L107.343 9.49975C107.668 9.74775 108.097 10.1138 108.371 10.3618L110.788 9.11575L110.944 9.00275L110.83 9.15575L109.576 11.5598Z" fill="#6F6F6F"/>
</svg>
