<svg width="17" height="11" viewBox="0 0 17 11" fill="none" xmlns="http://www.w3.org/2000/svg">
<path d="M15.1426 8.14258H1.14258C0.590293 8.14258 0.142578 8.59029 0.142578 9.14258C0.142578 9.69486 0.590293 10.1426 1.14258 10.1426H15.1426C15.6949 10.1426 16.1426 9.69486 16.1426 9.14258C16.1426 8.59029 15.6949 8.14258 15.1426 8.14258Z" fill="white"/>
<path d="M15.1426 4.14258H1.14258C0.590293 4.14258 0.142578 4.59029 0.142578 5.14258C0.142578 5.69486 0.590293 6.14258 1.14258 6.14258H15.1426C15.6949 6.14258 16.1426 5.69486 16.1426 5.14258C16.1426 4.59029 15.6949 4.14258 15.1426 4.14258Z" fill="white"/>
<path d="M15.1426 0.142578H1.14258C0.590293 0.142578 0.142578 0.590293 0.142578 1.14258C0.142578 1.69486 0.590293 2.14258 1.14258 2.14258H15.1426C15.6949 2.14258 16.1426 1.69486 16.1426 1.14258C16.1426 0.590293 15.6949 0.142578 15.1426 0.142578Z" fill="white"/>
</svg>
