<svg width="46" height="40" viewBox="0 0 46 40" fill="none" xmlns="http://www.w3.org/2000/svg">
<path fill-rule="evenodd" clip-rule="evenodd" d="M0 40H45.697V0H0V40ZM21.872 12.354C21.848 14.11 21.848 15.772 20.363 17.317C18.557 19.214 15.193 19.845 12.546 19.845C11.3062 19.8529 10.0696 19.7197 8.86 19.448C8.02 19.261 6.931 18.933 5.843 18.254C3.096 16.498 3.073 14.32 3.073 12.354V2.756H7.426V12.472C7.426 13.946 7.747 15.186 9.405 15.936C10.815 16.569 12.076 16.522 13.363 16.475C15.02 16.333 16.084 15.912 16.777 15.164C17.197 14.695 17.569 14.157 17.518 12.494V2.756H21.873L21.872 12.354ZM22.036 32.454C22.036 33.413 21.803 34.42 21.21 35.239C19.793 37.183 17.447 37.183 15.669 37.205H3.165V20.68H14.972C16.854 20.726 19.148 20.773 20.386 22.388C21.03 23.231 21.108 24.144 21.108 24.729C21.108 25.174 21.056 26.111 20.386 26.929C19.638 27.819 18.659 28.1 18.092 28.24C19.226 28.522 22.036 29.153 22.036 32.455V32.454ZM37.395 12.378L42.689 19.283H37.544L32.868 12.635H27.896V19.283H23.517V2.756H35.539C37.519 2.756 39.324 2.92 40.784 4.512C41.675 5.495 41.922 6.736 41.922 7.696C41.922 8.96 41.477 10.459 40.24 11.348C39.3 12.027 38.087 12.26 37.395 12.378ZM42.788 37.231H38.459L29.801 27.914C29.0244 27.0711 28.2737 26.2047 27.55 25.316C27.674 26.58 27.674 26.861 27.698 28.125V37.231H23.543V20.704H27.897L36.455 29.904C37.494 31.051 37.692 31.286 38.781 32.574C38.633 31.004 38.633 30.583 38.608 29.155V20.704H42.788V37.231ZM37.494 7.743C37.494 7.415 37.444 6.853 37.148 6.455C36.826 6.057 36.405 5.659 34.674 5.659H27.896V9.709H34.872C35.811 9.709 37.494 9.592 37.494 7.743ZM17.473 32.055C17.473 30.065 15.746 30.065 15.076 30.065H7.677V34.303H14.509C15.539 34.303 17.473 34.326 17.473 32.055ZM16.751 25.337C16.751 23.581 15.281 23.557 14.559 23.557H7.677V27.187H14.199C14.74 27.187 15.255 27.163 15.669 27.022C16.751 26.624 16.751 25.524 16.751 25.337Z" fill="black"/>
</svg>
