<svg width="106" height="341" viewBox="0 0 106 341" fill="none" xmlns="http://www.w3.org/2000/svg">
<path d="M38.4121 79.1426V21.1426C38.4121 7.80925 45.0788 1.14258 58.4121 1.14258H104.412" stroke="url(#paint0_linear_4326_3)" stroke-width="2" stroke-dasharray="136.46 136.46"/>
<rect x="17.6328" y="79.6328" width="41.55" height="41.55" rx="7.5" fill="#F6F9FC"/>
<rect x="17.6328" y="79.6328" width="41.55" height="41.55" rx="7.5" stroke="#C4CCD8"/>
<path d="M43.976 95.5901L39.8659 108.143L39.8556 108.19L39.8431 108.237L39.8278 108.281C39.8239 108.295 39.8194 108.308 39.8141 108.321L39.7818 108.4L39.744 108.475L39.7318 108.497L39.6894 108.568L39.6419 108.635L39.6267 108.655L39.5737 108.718L39.517 108.778L39.5032 108.789C39.4634 108.828 39.4206 108.864 39.3753 108.897L39.301 108.944L39.2229 108.985L39.2076 108.994L39.1323 109.027L39.0553 109.057H39.0324L38.9524 109.08C38.9387 109.083 38.9292 109.067 38.9382 109.056L38.9534 109.038C39.1478 108.789 39.2379 108.473 39.2018 108.157C39.1654 107.838 38.9912 107.632 38.7401 107.447L38.6698 107.397L33.5319 103.66L33.4659 103.608C33.4424 103.589 33.4198 103.568 33.3981 103.547C33.3935 103.543 33.3884 103.538 33.3834 103.532C33.3684 103.517 33.354 103.502 33.3401 103.486L33.3209 103.464C33.3096 103.451 33.2988 103.438 33.2882 103.424C33.2804 103.414 33.2724 103.403 33.2646 103.393L33.2514 103.374L33.2388 103.356C33.2318 103.345 33.2248 103.334 33.218 103.323C33.2099 103.311 33.2023 103.298 33.1948 103.285C33.1897 103.276 33.1848 103.267 33.1799 103.258C33.171 103.242 33.1624 103.225 33.1542 103.208L33.1418 103.181C33.1352 103.167 33.1289 103.152 33.1228 103.137C33.1187 103.127 33.1148 103.117 33.111 103.106C33.1043 103.089 33.098 103.07 33.0922 103.052C33.0896 103.044 33.0873 103.037 33.085 103.029C33.08 103.012 33.0753 102.995 33.071 102.978L33.0634 102.946C33.06 102.931 33.057 102.916 33.0542 102.901L33.0483 102.866C33.0414 102.821 33.037 102.776 33.0352 102.73C33.0337 102.694 33.0339 102.658 33.0357 102.621C33.0386 102.565 33.0451 102.511 33.0552 102.457C33.0581 102.442 33.0613 102.427 33.0648 102.412C33.0675 102.4 33.0702 102.389 33.0732 102.377L33.0846 102.337C33.0888 102.323 33.0933 102.309 33.098 102.295L33.1012 102.285C33.1184 102.164 33.1533 102.044 33.207 101.93L33.2509 101.845L36.7708 95.5707M43.976 95.5901L43.9781 95.5888C44.1411 95.0888 43.9621 94.5407 43.5354 94.2333L40.3619 91.95C40.0845 91.7505 39.7356 91.6778 39.4016 91.7498L39.3117 91.7728C39.0162 91.8607 38.7641 92.0587 38.609 92.3277L36.7686 95.5704M43.976 95.5901L43.9837 95.5707" stroke="#C4CCD8" stroke-width="1.83333"/>
<path d="M46.3865 95.5703H30.4287C29.761 95.5703 29.2197 96.1116 29.2197 96.7792V107.901C29.2197 108.569 29.761 109.11 30.4287 109.11H46.3865C47.0542 109.11 47.5954 108.569 47.5954 107.901V96.7792C47.5954 96.1116 47.0542 95.5703 46.3865 95.5703Z" stroke="#C4CCD8" stroke-width="1.83333"/>
<path d="M38.4121 269.143V205.143C38.4121 191.809 45.0788 185.143 58.4121 185.143H104.412" stroke="url(#paint1_linear_4326_3)" stroke-width="2" stroke-dasharray="142.46 142.46"/>
<g filter="url(#filter0_dd_4326_3)">
<rect x="14.4121" y="266.412" width="48" height="48" rx="8" fill="white"/>
<path d="M34.3016 279.508C32.4779 279.624 30.7692 280.438 29.5314 281.783C28.2937 283.127 27.6224 284.897 27.6576 286.724C27.6927 288.551 28.4315 290.294 29.7201 291.59C31.0086 292.885 32.7475 293.634 34.5743 293.679H40.3266C41.0736 293.679 41.6789 293.079 41.6789 292.327V286.596C41.6804 285.64 41.4885 284.694 41.1146 283.814C40.7407 282.935 40.1926 282.14 39.5033 281.477C38.8141 280.815 37.9978 280.299 37.1039 279.961C36.2099 279.622 35.2567 279.468 34.3016 279.508Z" fill="url(#paint2_linear_4326_3)"/>
<path d="M42.513 301.306C44.3367 301.19 46.0454 300.376 47.2832 299.031C48.521 297.687 49.1922 295.917 49.1571 294.09C49.1219 292.263 48.3831 290.52 47.0945 289.224C45.806 287.928 44.0671 287.18 42.2404 287.135H36.488C36.1293 287.135 35.7854 287.277 35.5318 287.531C35.2782 287.784 35.1358 288.128 35.1358 288.487V294.218C35.1342 295.173 35.3261 296.12 35.7 296.999C36.0739 297.879 36.622 298.674 37.3113 299.336C38.0006 299.999 38.8168 300.515 39.7107 300.853C40.6047 301.192 41.5579 301.346 42.513 301.306Z" fill="#0073E6"/>
<path d="M41.6787 287.136V292.327C41.6787 292.686 41.5363 293.03 41.2827 293.283C41.0291 293.537 40.6852 293.679 40.3265 293.679H35.1357V288.489C35.135 288.145 35.2655 287.813 35.5005 287.562C35.7355 287.311 36.0574 287.159 36.4007 287.136L36.488 287.131H41.6787V287.136Z" fill="url(#paint3_linear_4326_3)"/>
</g>
<defs>
<filter id="filter0_dd_4326_3" x="0.785409" y="265.385" width="75.2534" height="75.2534" filterUnits="userSpaceOnUse" color-interpolation-filters="sRGB">
<feFlood flood-opacity="0" result="BackgroundImageFix"/>
<feColorMatrix in="SourceAlpha" type="matrix" values="0 0 0 0 0 0 0 0 0 0 0 0 0 0 0 0 0 0 127 0" result="hardAlpha"/>
<feMorphology radius="7.56" operator="erode" in="SourceAlpha" result="effect1_dropShadow_4326_3"/>
<feOffset dy="7.56"/>
<feGaussianBlur stdDeviation="7.56"/>
<feComposite in2="hardAlpha" operator="out"/>
<feColorMatrix type="matrix" values="0 0 0 0 0 0 0 0 0 0 0 0 0 0 0 0 0 0 0.1 0"/>
<feBlend mode="normal" in2="BackgroundImageFix" result="effect1_dropShadow_4326_3"/>
<feColorMatrix in="SourceAlpha" type="matrix" values="0 0 0 0 0 0 0 0 0 0 0 0 0 0 0 0 0 0 127 0" result="hardAlpha"/>
<feMorphology radius="11.5733" operator="erode" in="SourceAlpha" result="effect2_dropShadow_4326_3"/>
<feOffset dy="12.6"/>
<feGaussianBlur stdDeviation="12.6"/>
<feComposite in2="hardAlpha" operator="out"/>
<feColorMatrix type="matrix" values="0 0 0 0 0.196078 0 0 0 0 0.196078 0 0 0 0 0.364706 0 0 0 0.25 0"/>
<feBlend mode="normal" in2="effect1_dropShadow_4326_3" result="effect2_dropShadow_4326_3"/>
<feBlend mode="normal" in="SourceGraphic" in2="effect2_dropShadow_4326_3" result="shape"/>
</filter>
<linearGradient id="paint0_linear_4326_3" x1="37.4121" y1="0.142578" x2="38.4121" y2="0.142578" gradientUnits="userSpaceOnUse">
<stop stop-color="#FF80FF"/>
<stop offset="1" stop-color="#0073E6"/>
</linearGradient>
<linearGradient id="paint1_linear_4326_3" x1="37.4121" y1="184.143" x2="38.4121" y2="184.143" gradientUnits="userSpaceOnUse">
<stop stop-color="#11EFE3"/>
<stop offset="1" stop-color="#0073E6"/>
</linearGradient>
<linearGradient id="paint2_linear_4326_3" x1="34.5906" y1="280.435" x2="34.5906" y2="287.818" gradientUnits="userSpaceOnUse">
<stop stop-color="#11EFE3"/>
<stop offset="0.33" stop-color="#15E8E2"/>
<stop offset="0.74" stop-color="#1FD3E0"/>
<stop offset="1" stop-color="#21CFE0"/>
</linearGradient>
<linearGradient id="paint3_linear_4326_3" x1="38.4072" y1="288.074" x2="38.4072" y2="294.355" gradientUnits="userSpaceOnUse">
<stop stop-color="#00299C"/>
<stop offset="1" stop-color="#0073E6"/>
</linearGradient>
</defs>
</svg>
