<svg width="541" height="432" viewBox="0 0 541 432" fill="none" xmlns="http://www.w3.org/2000/svg">
<path d="M38.27 170V112C38.27 98.6667 44.9367 92 58.27 92H104.27" stroke="url(#paint0_linear_4003_462)" stroke-width="2" stroke-dasharray="136.46 136.46"/>
<rect x="17.4902" y="170.49" width="41.55" height="41.55" rx="7.5" fill="#F6F9FC"/>
<rect x="17.4902" y="170.49" width="41.55" height="41.55" rx="7.5" stroke="#C4CCD8"/>
<path d="M43.833 186.447L39.7229 199L39.7126 199.047L39.7 199.094L39.6848 199.139C39.6809 199.152 39.6763 199.166 39.6711 199.179L39.6387 199.257L39.6009 199.333L39.5888 199.354L39.5464 199.425L39.4989 199.493L39.4836 199.513L39.4306 199.576L39.3739 199.636L39.3602 199.647C39.3203 199.686 39.2775 199.722 39.2322 199.754L39.1579 199.802L39.0798 199.842L39.0646 199.851L38.9893 199.885L38.9122 199.914H38.8894L38.8093 199.937C38.7956 199.94 38.7861 199.924 38.7952 199.913L38.8103 199.896C39.0047 199.647 39.0948 199.33 39.0587 199.014C39.0223 198.695 38.8482 198.489 38.5971 198.304L38.5267 198.254L33.3888 194.517L33.3228 194.466C33.2993 194.446 33.2767 194.426 33.255 194.404C33.2504 194.4 33.2454 194.395 33.2403 194.39C33.2253 194.375 33.2109 194.359 33.197 194.344L33.1779 194.322C33.1665 194.308 33.1557 194.295 33.1452 194.282C33.1373 194.271 33.1294 194.261 33.1216 194.25L33.1084 194.232L33.0957 194.213C33.0887 194.203 33.0817 194.192 33.0749 194.181C33.0669 194.168 33.0592 194.155 33.0517 194.142C33.0466 194.133 33.0417 194.124 33.0369 194.115C33.0279 194.099 33.0193 194.082 33.0112 194.065L32.9987 194.038C32.9922 194.024 32.9858 194.009 32.9797 193.994C32.9756 193.984 32.9717 193.974 32.9679 193.964C32.9613 193.946 32.9549 193.928 32.9491 193.909C32.9466 193.902 32.9442 193.894 32.942 193.886C32.9369 193.87 32.9322 193.853 32.9279 193.835L32.9203 193.804C32.9169 193.788 32.9139 193.773 32.9111 193.758L32.9053 193.724C32.8983 193.679 32.8939 193.633 32.8921 193.588C32.8906 193.552 32.8908 193.515 32.8926 193.479C32.8956 193.422 32.902 193.368 32.9121 193.315C32.915 193.3 32.9182 193.284 32.9217 193.269C32.9244 193.257 32.9272 193.246 32.9301 193.235L32.9415 193.194C32.9457 193.18 32.9502 193.166 32.9549 193.152L32.9581 193.143C32.9753 193.022 33.0103 192.902 33.064 192.787L33.1078 192.702L36.6278 186.428M43.833 186.447L43.8351 186.446C43.998 185.946 43.819 185.398 43.3923 185.091L40.2189 182.807C39.9414 182.608 39.5925 182.535 39.2585 182.607L39.1686 182.63C38.8731 182.718 38.621 182.916 38.4659 183.185L36.6256 186.428M43.833 186.447L43.8406 186.428" stroke="#C4CCD8" stroke-width="1.83333"/>
<path d="M46.2444 186.428H30.2866C29.6189 186.428 29.0776 186.969 29.0776 187.637V198.759C29.0776 199.426 29.6189 199.968 30.2866 199.968H46.2444C46.9121 199.968 47.4534 199.426 47.4534 198.759V187.637C47.4534 186.969 46.9121 186.428 46.2444 186.428Z" stroke="#C4CCD8" stroke-width="1.83333"/>
<path d="M38.27 360V296C38.27 282.667 44.9367 276 58.27 276H104.27" stroke="url(#paint1_linear_4003_462)" stroke-width="2" stroke-dasharray="142.46 142.46"/>
<g filter="url(#filter0_dd_4003_462)">
<rect x="14.27" y="357.27" width="48" height="48" rx="8" fill="white"/>
<path d="M34.1591 370.365C32.3354 370.481 30.6266 371.296 29.3888 372.64C28.1511 373.984 27.4798 375.754 27.515 377.581C27.5501 379.408 28.289 381.151 29.5775 382.447C30.8661 383.743 32.6049 384.491 34.4317 384.537H40.1841C40.9311 384.537 41.5363 383.937 41.5363 383.184V377.454C41.5378 376.498 41.3459 375.552 40.972 374.672C40.5981 373.792 40.05 372.997 39.3608 372.335C38.6715 371.673 37.8553 371.157 36.9613 370.818C36.0673 370.48 35.1141 370.326 34.1591 370.365Z" fill="url(#paint2_linear_4003_462)"/>
<path d="M42.3704 392.163C44.1941 392.048 45.9029 391.233 47.1406 389.889C48.3784 388.544 49.0496 386.774 49.0145 384.947C48.9793 383.12 48.2405 381.377 46.9519 380.082C45.6634 378.786 43.9246 378.037 42.0978 377.992H36.3454C35.9868 377.992 35.6428 378.135 35.3892 378.388C35.1356 378.642 34.9932 378.986 34.9932 379.344V385.075C34.9916 386.031 35.1836 386.977 35.5574 387.857C35.9313 388.737 36.4794 389.532 37.1687 390.194C37.858 390.856 38.6742 391.372 39.5682 391.711C40.4621 392.049 41.4153 392.203 42.3704 392.163Z" fill="#0073E6"/>
<path d="M41.5362 377.994V383.185C41.5362 383.543 41.3937 383.887 41.1401 384.141C40.8865 384.394 40.5426 384.537 40.1839 384.537H34.9932V379.346C34.9925 379.002 35.1229 378.671 35.3579 378.419C35.5929 378.168 35.9148 378.016 36.2581 377.994L36.3454 377.988H41.5362V377.994Z" fill="url(#paint3_linear_4003_462)"/>
</g>
<path d="M503.74 117.529V127.998C503.74 141.332 497.073 147.999 483.739 147.999H437.72" stroke="url(#paint4_linear_4003_462)" stroke-width="2" stroke-dasharray="88.95 88.95"/>
<rect x="482.96" y="75.4902" width="41.55" height="41.55" rx="7.5" fill="#F6F9FC"/>
<rect x="482.96" y="75.4902" width="41.55" height="41.55" rx="7.5" stroke="#C4CCD8"/>
<path d="M508.088 93.604C508.088 93.4311 508.052 93.26 507.982 93.102L506.086 88.7767C505.89 88.3305 505.454 88.043 504.972 88.043H495.283C494.61 88.043 494.064 88.5963 494.064 89.2788V97.9293C494.064 98.6118 494.61 99.1651 495.283 99.1651H504.972C505.454 99.1651 505.89 98.8776 506.086 98.4313L507.982 94.1061C508.052 93.9481 508.088 93.777 508.088 93.604Z" stroke="#C4CCD8" stroke-width="1.83333"/>
<path d="M499.383 98.9244C499.383 99.0973 499.419 99.2684 499.488 99.4264L501.385 103.752C501.58 104.198 502.017 104.485 502.499 104.485H512.187C512.861 104.485 513.407 103.932 513.407 103.25V94.5991C513.407 93.9166 512.861 93.3633 512.187 93.3633H502.499C502.017 93.3633 501.58 93.6508 501.385 94.0971L499.488 98.4223C499.419 98.5803 499.383 98.7514 499.383 98.9244Z" stroke="#C4CCD8" stroke-width="1.83333"/>
<path d="M503.74 275V168C503.74 154.667 497.073 148 483.739 148H437.72" stroke="url(#paint5_linear_4003_462)" stroke-width="2" stroke-dasharray="185.48 185.48"/>
<rect x="482.96" y="275.49" width="41.55" height="41.55" rx="7.5" fill="#F6F9FC"/>
<rect x="482.96" y="275.49" width="41.55" height="41.55" rx="7.5" stroke="#C4CCD8"/>
<path d="M505.648 293.386L500.936 294.411L495.046 295.632C494.457 295.779 494.064 296.267 494.064 296.853V304.715C494.064 305.399 494.604 305.936 495.291 305.936H507.12V294.607C507.12 293.825 506.433 293.239 505.648 293.386Z" stroke="#C4CCD8" stroke-width="1.83333"/>
<path d="M511.885 286.616L501.332 288.844C500.743 288.989 500.351 289.473 500.351 290.054V294.461V305.937H512.18C512.867 305.84 513.407 305.307 513.407 304.629V287.827C513.407 287.052 512.671 286.471 511.885 286.616Z" stroke="#C4CCD8" stroke-width="1.83333"/>
<defs>
<filter id="filter0_dd_4003_462" x="0.643319" y="356.243" width="75.2534" height="75.2534" filterUnits="userSpaceOnUse" color-interpolation-filters="sRGB">
<feFlood flood-opacity="0" result="BackgroundImageFix"/>
<feColorMatrix in="SourceAlpha" type="matrix" values="0 0 0 0 0 0 0 0 0 0 0 0 0 0 0 0 0 0 127 0" result="hardAlpha"/>
<feMorphology radius="7.56" operator="erode" in="SourceAlpha" result="effect1_dropShadow_4003_462"/>
<feOffset dy="7.56"/>
<feGaussianBlur stdDeviation="7.56"/>
<feComposite in2="hardAlpha" operator="out"/>
<feColorMatrix type="matrix" values="0 0 0 0 0 0 0 0 0 0 0 0 0 0 0 0 0 0 0.1 0"/>
<feBlend mode="normal" in2="BackgroundImageFix" result="effect1_dropShadow_4003_462"/>
<feColorMatrix in="SourceAlpha" type="matrix" values="0 0 0 0 0 0 0 0 0 0 0 0 0 0 0 0 0 0 127 0" result="hardAlpha"/>
<feMorphology radius="11.5733" operator="erode" in="SourceAlpha" result="effect2_dropShadow_4003_462"/>
<feOffset dy="12.6"/>
<feGaussianBlur stdDeviation="12.6"/>
<feComposite in2="hardAlpha" operator="out"/>
<feColorMatrix type="matrix" values="0 0 0 0 0.196078 0 0 0 0 0.196078 0 0 0 0 0.364706 0 0 0 0.25 0"/>
<feBlend mode="normal" in2="effect1_dropShadow_4003_462" result="effect2_dropShadow_4003_462"/>
<feBlend mode="normal" in="SourceGraphic" in2="effect2_dropShadow_4003_462" result="shape"/>
</filter>
<linearGradient id="paint0_linear_4003_462" x1="37.27" y1="91" x2="38.27" y2="91" gradientUnits="userSpaceOnUse">
<stop stop-color="#FF80FF"/>
<stop offset="1" stop-color="#0073E6"/>
</linearGradient>
<linearGradient id="paint1_linear_4003_462" x1="37.27" y1="275" x2="38.27" y2="275" gradientUnits="userSpaceOnUse">
<stop stop-color="#11EFE3"/>
<stop offset="1" stop-color="#0073E6"/>
</linearGradient>
<linearGradient id="paint2_linear_4003_462" x1="34.448" y1="371.292" x2="34.448" y2="378.675" gradientUnits="userSpaceOnUse">
<stop stop-color="#11EFE3"/>
<stop offset="0.33" stop-color="#15E8E2"/>
<stop offset="0.74" stop-color="#1FD3E0"/>
<stop offset="1" stop-color="#21CFE0"/>
</linearGradient>
<linearGradient id="paint3_linear_4003_462" x1="38.2647" y1="378.932" x2="38.2647" y2="385.213" gradientUnits="userSpaceOnUse">
<stop stop-color="#00299C"/>
<stop offset="1" stop-color="#0073E6"/>
</linearGradient>
<linearGradient id="paint4_linear_4003_462" x1="436.72" y1="116.529" x2="437.72" y2="116.529" gradientUnits="userSpaceOnUse">
<stop stop-color="#1DF5E9"/>
<stop offset="1" stop-color="#00D924"/>
</linearGradient>
<linearGradient id="paint5_linear_4003_462" x1="436.72" y1="147" x2="437.72" y2="147" gradientUnits="userSpaceOnUse">
<stop stop-color="#1DF5E9"/>
<stop offset="1" stop-color="#00D924"/>
</linearGradient>
</defs>
</svg>
