<svg xmlns="http://www.w3.org/2000/svg" xml:space="preserve" width="35" height="16"><path fill="#1D3944" d="M.16 2.96.17.47h2.42V15.42l-.4-.01-1.63-.01H.15v-2.49l.01-9.95zM5.04 6.56l.01-1.76h2.42v10.6h-.41l-1.62-.01-.41-.01v-1.76l.01-7.06z"/><circle fill="#1D3944" cx="6.28" cy="1.73" r="1.35"/><path fill="#1D3944" d="M9.89 13.62v1.77h.39l1.53-.01h.39l.08-.18.43-.93.58-1.19.71-1.33c.25-.43.49-.83.73-1.19s.48-.69.68-.97a13.01 13.01 0 0 1 1.14-1.32 4.34 4.34 0 0 1 1.04-.8c.13-.07.25-.11.35-.15.11-.03.2-.04.29-.05.09 0 .17 0 .25.02.07.02.13.04.19.08s.12.09.18.16c.05.07.09.15.13.24l.09.27.08.37c.02.16.05.38.06.58.02.21.03.4.04.84l.04 1.64c.01.52.01.86.04 1.13.02.28.06.49.11.67.05.19.12.34.2.52a2.87 2.87 0 0 0 .84 1.12 3.66 3.66 0 0 0 1.5.65c.29.06.58.07.87.06a4.8 4.8 0 0 0 1.85-.37c.29-.11.54-.23.86-.41a11.55 11.55 0 0 0 2.21-1.67c.37-.35.72-.72.9-.91l.17-.18.34.55 1.4 2.22.35.56.48-.01 1.96-.02.48-.01-.57-.89L31 10.89l-.57-.9.17-.24a31.72 31.72 0 0 0 2.81-4.87l.06-.11H33l-1.86-.01h-.47l-.06.14a30.25 30.25 0 0 1-3.8 5.77l-.44.47-.06.06V.49h-.41l-1.66.02-.41.01v2.07l.01 8.27v2.07l-.04.02a1.78 1.78 0 0 1-.91.24c-.11 0-.23 0-.34-.02a1.04 1.04 0 0 1-.31-.11.55.55 0 0 1-.22-.18 1.3 1.3 0 0 1-.17-.31 2.12 2.12 0 0 1-.13-.76l.01-.88V8.88c-.01-.61-.03-.92-.06-1.2A4.44 4.44 0 0 0 21 5.72a1.79 1.79 0 0 0-.33-.35 3.72 3.72 0 0 0-.98-.59 4.56 4.56 0 0 0-1.05-.18l-.49.02A4.79 4.79 0 0 0 15.7 5.7c-.21.16-.38.3-.56.48a14.19 14.19 0 0 0-1.3 1.53c-.24.32-.47.67-.71 1.07l-.64 1.04-.13.22v-5.3l-.41.01-1.66.02h-.42l.01 1.77.01 7.08z"/></svg>