<svg width="270" height="81" viewBox="0 0 270 81" fill="none" xmlns="http://www.w3.org/2000/svg">
<path fill-rule="evenodd" clip-rule="evenodd" d="M106.56 47.2271V33.3721H110.276L114.983 43.7261L119.62 33.3711H123.179V47.2261H120.115V39.1661L116.581 47.2261H113.316L109.736 39.2101V47.2261L106.56 47.2271ZM135.507 41.8631L132.944 35.9891L130.439 41.8621L135.507 41.8631ZM128.148 47.2271H124.545L130.738 33.3721H135.173L141.41 47.2271H137.854L136.627 44.4671H129.337L128.148 47.2271ZM142.847 47.2271V33.3721H156.176V36.1421H146.066V38.8941H154.735V41.5981H146.066V44.4561H156.201V47.2271H142.847ZM162.058 39.7341H169.062V36.1411H162.058V39.7341ZM158.793 47.2271V33.3721H169.948C171.438 33.3721 172.303 34.2271 172.303 35.6951V40.3501C172.303 41.4211 171.348 42.3891 169.495 42.3891C169.39 42.3941 169.283 42.3891 169.173 42.3891L172.42 47.2271H168.837L165.758 42.4901H162.058V47.2271H158.793ZM178.177 47.2351H177.072C175.629 47.2351 174.934 46.4081 174.934 45.2031V43.3931H178.177V44.4651H185.067V41.6291H177.164C175.902 41.6291 174.993 40.7871 174.993 39.6191V35.5051C174.993 34.2601 175.982 33.3801 177.186 33.3801H186.221C187.442 33.3801 188.286 34.2851 188.286 35.5931V37.2461H185.067V36.1511H178.177V38.8801H186.057C187.221 38.8801 188.286 39.6441 188.286 41.1141V45.0691C188.286 46.4161 187.534 47.2351 186.126 47.2351H178.177ZM191.398 47.2351V33.3781H194.708V38.9201L201.012 33.3781H205.493L197.973 39.8151L205.764 47.2351H201.124L194.708 40.9331V47.2351H191.398Z" fill="#AAB4C1"/>
<path fill-rule="evenodd" clip-rule="evenodd" d="M89.397 24.4805H66.608C65.649 24.4805 64.73 24.8605 64.053 25.5355C63.7181 25.8691 63.4526 26.2658 63.2718 26.7026C63.0911 27.1394 62.9987 27.6077 63 28.0805V52.3875C63 54.3685 64.615 55.9755 66.608 55.9755H89.398C91.393 55.9755 93.011 54.3655 93.011 52.3815V28.0745C93.011 26.0895 91.393 24.4805 89.397 24.4805ZM88.711 31.9875L82.787 39.3445L91.347 43.4235L91.341 43.4525H81.838L83.956 52.6185L83.927 52.6355L78.003 45.2785L72.079 52.6355L72.055 52.6235L74.168 43.4515H64.67L64.659 43.4235L73.219 39.3435L67.295 31.9875L67.312 31.9645L75.872 36.0435L77.985 26.8765H78.02L80.133 36.0435L88.693 31.9635L88.711 31.9875Z" fill="#AAB4C1"/>
</svg>
