<svg width="21" height="12" viewBox="0 0 21 12" fill="none" xmlns="http://www.w3.org/2000/svg">
<g clip-path="url(#clip0_4003_87)">
<path d="M10 9C11.933 9 13.5 7.433 13.5 5.5C13.5 3.567 11.933 2 10 2C8.067 2 6.5 3.567 6.5 5.5C6.5 7.433 8.067 9 10 9Z" stroke="#62788D"/>
<path d="M12.1498 7.65C12.3498 7.45 12.6498 7.45 12.8498 7.65L14.9698 9.77C15.0271 9.81298 15.0745 9.86778 15.1088 9.93067C15.1431 9.99357 15.1634 10.0631 15.1685 10.1346C15.1736 10.206 15.1632 10.2777 15.1382 10.3448C15.1132 10.412 15.074 10.4729 15.0233 10.5236C14.9727 10.5742 14.9117 10.6134 14.8446 10.6384C14.7775 10.6635 14.7058 10.6738 14.6343 10.6687C14.5629 10.6637 14.4933 10.6433 14.4304 10.609C14.3675 10.5747 14.3127 10.5273 14.2698 10.47L12.1498 8.35C12.0582 8.25654 12.0068 8.13088 12.0068 8C12.0068 7.86912 12.0582 7.74346 12.1498 7.65Z" fill="#62788D"/>
</g>
<defs>
<clipPath id="clip0_4003_87">
<rect width="10" height="10" fill="white" transform="translate(6 1.5)"/>
</clipPath>
</defs>
</svg>
