<svg width="200" height="40" viewBox="0 0 200 40" fill="none" xmlns="http://www.w3.org/2000/svg">
<path d="M66.246 8.15561C66.363 8.17561 66.519 8.25361 66.539 8.42961C66.559 8.58561 70.154 32.9136 70.154 32.9136L61.341 35.1006L41 31.5846C41 31.5846 43.423 12.8066 43.52 12.1616C43.638 11.2816 43.677 11.2626 44.595 10.9696C44.609 10.9556 45.265 10.7536 46.304 10.4346L47.741 9.99261C47.937 8.58561 48.621 6.76861 49.539 5.32261C50.849 3.25161 52.431 2.09861 54.033 2.05961C54.854 2.03961 55.538 2.31361 56.085 2.89961C56.125 2.95761 56.163 2.99761 56.202 3.03661C56.281 3.01661 56.378 3.01661 56.456 3.01661C57.706 3.01661 58.723 3.72061 59.426 5.06861C59.641 5.47861 59.798 5.88861 59.896 6.22161L60.892 5.90861C61.048 5.86861 61.419 5.81061 61.615 6.00661C61.81 6.20161 63.784 8.11661 63.784 8.11661C63.784 8.11661 66.129 8.13661 66.246 8.15661V8.15561ZM58.088 6.77761C58.368 6.68961 58.632 6.60561 58.879 6.53361C58.625 5.71361 58.039 4.34561 56.808 4.11061C57.179 5.08761 57.277 6.22061 57.297 7.02261C57.573 6.93961 57.838 6.85661 58.088 6.77761ZM55.418 7.60861L56.241 7.35461C56.241 6.47461 56.163 5.16561 55.714 4.24761C55.244 4.44361 54.854 4.77561 54.561 5.08761C53.799 5.90861 53.174 7.15961 52.841 8.40961C53.6989 8.1391 54.5579 7.8721 55.418 7.60861ZM55.01 3.38861C54.737 3.21161 54.424 3.13361 54.053 3.13361C51.591 3.21161 49.441 7.06161 48.855 9.64061L49.111 9.56061C49.915 9.31061 50.766 9.04561 51.649 8.78061C51.962 7.14061 52.744 5.45961 53.759 4.36461C54.151 3.93461 54.581 3.60361 55.01 3.38861ZM55.44 16.5186L56.456 12.6886C56.456 12.6886 55.577 12.2396 53.818 12.3956C49.344 12.6886 47.312 15.8156 47.507 18.9026C47.639 20.9536 48.854 21.8166 49.919 22.5726C50.751 23.1636 51.492 23.6896 51.552 24.6676C51.591 25.2146 51.259 25.9766 50.321 26.0346C48.894 26.1136 47.097 24.7646 47.097 24.7646L46.413 27.6766C46.413 27.6766 48.191 29.5716 51.435 29.3766C54.131 29.2006 56.007 27.0506 55.812 23.8856C55.658 21.4636 53.955 20.3706 52.606 19.5046C51.723 18.9386 50.992 18.4686 50.946 17.7886C50.926 17.4566 50.946 16.2066 52.939 16.0886C53.7945 16.0395 54.65 16.1866 55.44 16.5186Z" fill="#95BF47"/>
<path d="M66.2498 8.16086C66.1298 8.14086 63.7798 8.12086 63.7798 8.12086L61.6098 6.00086C61.5391 5.927 61.4421 5.8839 61.3398 5.88086V35.1009L70.1498 32.9109C70.1498 32.9109 66.5498 8.61086 66.5398 8.43086C66.5238 8.36039 66.4864 8.2966 66.4327 8.24826C66.379 8.19992 66.3116 8.16939 66.2398 8.16086H66.2498Z" fill="#5E8E3E"/>
<path d="M56.4602 12.6896L55.4402 16.5196C55.4402 16.5196 54.3102 15.9896 52.9402 16.0896C50.9402 16.2096 50.9302 17.4596 50.9402 17.7896C51.0602 19.5096 55.5602 19.8796 55.8102 23.8896C56.0102 27.0496 54.1302 29.1996 51.4302 29.3796C50.5213 29.4592 49.6058 29.3492 48.7417 29.0565C47.8776 28.7639 47.0837 28.2951 46.4102 27.6796L47.1002 24.7596C47.1002 24.7596 48.9002 26.1096 50.3202 26.0296C50.4918 26.0261 50.661 25.9875 50.8172 25.9162C50.9735 25.8449 51.1135 25.7424 51.2286 25.6151C51.3438 25.4877 51.4318 25.3382 51.4871 25.1756C51.5424 25.013 51.5638 24.8408 51.5502 24.6696C51.4102 22.4396 47.7502 22.5596 47.5102 18.8996C47.3102 15.8096 49.3402 12.6896 53.8102 12.3996C55.5802 12.2396 56.4602 12.6896 56.4602 12.6896Z" fill="white"/>
<path d="M82.0998 20.8603C81.0798 20.3103 80.5498 19.8403 80.5498 19.2003C80.5498 18.3703 81.2698 17.8503 82.4298 17.8503C83.7498 17.8503 84.9298 18.3903 84.9298 18.3903L85.8598 15.5403C85.8598 15.5403 84.9998 14.8803 82.4798 14.8803C78.9698 14.8803 76.5198 16.8903 76.5198 19.7203C76.5198 21.3203 77.6598 22.5603 79.1798 23.4403C80.4098 24.1403 80.8398 24.6303 80.8398 25.3703C80.8398 26.1303 80.2398 26.7403 79.0798 26.7403C77.3798 26.7403 75.7798 25.8603 75.7798 25.8603L74.7798 28.7103C74.7798 28.7103 76.2698 29.7103 78.7498 29.7103C82.3698 29.7103 84.9698 27.9303 84.9698 24.7303C84.9898 22.9903 83.6698 21.7603 82.0898 20.8603H82.0998ZM96.5098 14.8403C94.7398 14.8403 93.3298 15.6803 92.2498 16.9703L92.1998 16.9503L93.7398 8.85031H89.6998L85.7998 29.4303H89.8198L91.1698 22.4003C91.6998 19.7403 93.0698 18.1003 94.3498 18.1003C95.2498 18.1003 95.5998 18.7003 95.5998 19.5903C95.5998 20.1303 95.5498 20.8203 95.4298 21.3603L93.8998 29.4103H97.9298L99.5098 21.0903C99.6898 20.2103 99.8098 19.1603 99.8098 18.4703C99.8098 16.2303 98.5898 14.8403 96.5098 14.8403ZM108.92 14.8403C104.08 14.8403 100.87 19.2103 100.87 24.1003C100.87 27.2303 102.81 29.7303 106.42 29.7303C111.17 29.7303 114.39 25.4703 114.39 20.4703C114.37 17.5903 112.67 14.8403 108.92 14.8403ZM106.92 26.6403C105.56 26.6403 104.97 25.4703 104.97 24.0203C104.97 21.7203 106.17 17.9403 108.36 17.9403C109.78 17.9403 110.26 19.1803 110.26 20.3703C110.26 22.8503 109.06 26.6403 106.93 26.6403H106.92ZM124.67 14.8403C121.96 14.8403 120.41 17.2203 120.41 17.2203H120.35L120.59 15.0503H117.03C116.818 16.8393 116.545 18.6203 116.21 20.3903L113.41 35.1203H117.44L118.56 29.1603H118.63C118.63 29.1603 119.45 29.6903 121 29.6903C125.73 29.6903 128.81 24.8403 128.81 19.9403C128.83 17.2603 127.62 14.8403 124.67 14.8403ZM120.82 26.7003C119.77 26.7003 119.16 26.1103 119.16 26.1103L119.83 22.3403C120.29 19.8403 121.6 18.1603 123.01 18.1603C124.24 18.1603 124.61 19.2903 124.61 20.3903C124.61 22.9903 123.07 26.6903 120.82 26.6903V26.7003ZM134.58 9.07031C134.273 9.07024 133.97 9.13135 133.688 9.25005C133.406 9.36875 133.15 9.54265 132.936 9.76155C132.721 9.98045 132.553 10.2399 132.44 10.5248C132.328 10.8096 132.273 11.1141 132.28 11.4203C132.28 12.6103 133.03 13.4303 134.17 13.4303H134.23C135.48 13.4303 136.57 12.5903 136.59 11.0903C136.59 9.91031 135.81 9.07031 134.58 9.07031ZM128.95 29.4303H132.98L135.71 15.1703H131.65L128.95 29.4303ZM145.95 15.1303H143.15L143.29 14.4703C143.53 13.1003 144.35 11.8703 145.68 11.8703C146.4 11.8703 146.97 12.0703 146.97 12.0703L147.75 8.92031C147.75 8.92031 147.05 8.57031 145.56 8.57031C144.13 8.57031 142.71 8.97031 141.61 9.91031C140.24 11.0903 139.6 12.7703 139.27 14.4703L139.15 15.1303H137.27L136.69 18.1603H138.56L136.43 29.4303H140.46L142.59 18.1603H145.36L145.96 15.1303H145.95ZM155.65 15.1703C155.65 15.1703 153.12 21.5203 151.99 24.9703H151.93C151.85 23.8703 150.93 15.1703 150.93 15.1703H146.71L149.14 28.2803C149.19 28.5803 149.16 28.7503 149.06 28.9503C148.529 29.9205 147.775 30.7501 146.86 31.3703C146.11 31.9203 145.26 32.2703 144.58 32.5003L145.7 35.9203C146.52 35.7503 148.2 35.0803 149.64 33.7303C151.48 32.0103 153.18 29.3603 154.92 25.7403L159.84 15.1703H155.64H155.65Z" fill="black"/>
</svg>
