<svg width="270" height="81" viewBox="0 0 270 81" fill="none" xmlns="http://www.w3.org/2000/svg">
<path d="M99.4 36.7805C99.4 38.4805 98 39.8805 96.3 39.8805C94.6 39.8805 93.2 38.4805 93.2 36.7805C93.2 35.0805 94.6 33.6805 96.3 33.6805C98 33.6805 99.4 35.0805 99.4 36.7805ZM96.3 41.0805C94.6 41.0805 93.2 42.4805 93.2 44.1805C93.2 45.8805 94.6 47.2805 96.3 47.2805C98 47.2805 99.4 45.8805 99.4 44.1805C99.4 42.4805 98 41.0805 96.3 41.0805ZM115 40.4805C115 48.7805 108.3 55.4805 100 55.4805C91.7 55.4805 85 48.7805 85 40.4805C85 32.1805 91.7 25.4805 100 25.4805C108.3 25.4805 115 32.1805 115 40.4805ZM111 40.4805C111 34.3805 106.1 29.4805 100 29.4805C93.9 29.4805 89 34.3805 89 40.4805C89 46.5805 93.9 51.4805 100 51.4805C106.1 51.4805 111 46.5805 111 40.4805ZM103.7 41.0805C102 41.0805 100.6 42.4805 100.6 44.1805C100.6 45.8805 102 47.2805 103.7 47.2805C105.4 47.2805 106.8 45.8805 106.8 44.1805C106.8 42.4805 105.4 41.0805 103.7 41.0805ZM103.7 33.6805C102 33.6805 100.6 35.0805 100.6 36.7805C100.6 38.4805 102 39.8805 103.7 39.8805C105.4 39.8805 106.8 38.4805 106.8 36.7805C106.8 35.0805 105.4 33.6805 103.7 33.6805ZM155.3 31.3805C155.4 31.3805 155.5 31.4805 155.6 31.5805V34.7805C155.6 34.9805 155.4 35.0805 155.3 35.0805H150C149.8 35.0805 149.7 34.8805 149.7 34.7805V31.6805C149.7 31.4805 149.9 31.3805 150 31.3805H155.3ZM155.2 35.8805H145C144.9 35.8805 144.7 35.9805 144.7 36.1805L143.4 41.1805L143.3 41.4805L141.7 36.1805C141.7 36.0805 141.5 35.8805 141.4 35.8805H137.4C137.3 35.8805 137.1 35.9805 137.1 36.1805L135.6 41.1805L135.5 41.4805L135.4 41.1805L134.8 38.6805L134.2 36.1805C134.2 36.0805 134 35.8805 133.9 35.8805H125.9V31.5805C125.9 31.4805 125.7 31.2805 125.5 31.3805L120.5 32.9805C120.3 32.9805 120.2 33.0805 120.2 33.2805V35.9805H118.9C118.8 35.9805 118.6 36.0805 118.6 36.2805V40.0805C118.6 40.1805 118.7 40.3805 118.9 40.3805H120.2V45.0805C120.2 48.3805 122 49.8805 125.3 49.8805C126.7 49.8805 128 49.5805 128.9 49.0805V45.0805C128.9 44.8805 128.7 44.7805 128.6 44.8805C128.1 45.0805 127.6 45.1805 127.2 45.1805C126.3 45.1805 125.8 44.7805 125.8 43.7805V40.3805H128.7C128.8 40.3805 129 40.2805 129 40.0805V36.8805L132.8 49.4805C132.8 49.5805 133 49.7805 133.1 49.7805H137.3C137.4 49.7805 137.6 49.6805 137.6 49.4805L139.4 43.8805L140.3 46.7805L141.1 49.4805C141.1 49.5805 141.3 49.7805 141.4 49.7805H145.6C145.7 49.7805 145.9 49.6805 145.9 49.4805L149.7 36.8805V49.4805C149.7 49.5805 149.8 49.7805 150 49.7805H155.1C155.2 49.7805 155.4 49.6805 155.4 49.4805V36.1805C155.4 36.0805 155.3 35.8805 155.2 35.8805ZM161.9 31.3805H156.8C156.7 31.3805 156.5 31.4805 156.5 31.6805V49.3805C156.5 49.4805 156.6 49.6805 156.8 49.6805H161.9C162 49.6805 162.2 49.5805 162.2 49.3805V31.5805C162.2 31.4805 162.1 31.3805 161.9 31.3805ZM168.7 31.3805H163.4C163.3 31.3805 163.1 31.4805 163.1 31.6805V34.7805C163.1 34.8805 163.2 35.0805 163.4 35.0805H168.7C168.8 35.0805 169 34.9805 169 34.7805V31.5805C169 31.4805 168.9 31.3805 168.7 31.3805ZM168.6 35.8805H163.5C163.4 35.8805 163.2 35.9805 163.2 36.1805V49.2805C163.2 49.3805 163.3 49.5805 163.5 49.5805H168.6C168.7 49.5805 168.9 49.4805 168.9 49.2805V36.1805C168.9 36.0805 168.8 35.8805 168.6 35.8805ZM184.7 42.6805C184.7 46.4805 181.5 49.7805 177 49.7805C172.6 49.7805 169.4 46.4805 169.4 42.6805C169.4 38.8805 172.6 35.5805 177.1 35.5805C181.5 35.5805 184.7 38.8805 184.7 42.6805ZM179.3 42.7805C179.3 41.3805 178.3 40.2805 177.1 40.3805C175.8 40.3805 174.9 41.4805 174.9 42.7805C174.9 44.0805 175.9 45.1805 177.1 45.1805C178.4 45.1805 179.3 44.0805 179.3 42.7805Z" fill="#AAB4C1"/>
</svg>
