<svg width="270" height="81" viewBox="0 0 270 81" fill="none" xmlns="http://www.w3.org/2000/svg">
<path fill-rule="evenodd" clip-rule="evenodd" d="M146.58 54.3917C141.18 58.3817 133.37 60.4817 126.64 60.4817C117.645 60.53 108.955 57.2209 102.27 51.2017C101.77 50.7517 102.22 50.1217 102.83 50.4817C110.252 54.7203 118.653 56.9471 127.2 56.9417C133.18 56.9417 139.75 55.7017 145.8 53.1417C146.7 52.7517 147.47 53.7417 146.58 54.3917Z" fill="#EFA82E"/>
<path fill-rule="evenodd" clip-rule="evenodd" d="M148.82 51.8412C148.13 50.9612 144.26 51.4212 142.52 51.6312C142 51.6912 141.92 51.2312 142.39 50.9012C145.48 48.7312 150.54 49.3612 151.12 50.0812C151.72 50.8212 150.97 55.8812 148.08 58.2912C147.63 58.6712 147.21 58.4712 147.41 57.9812C148.06 56.3512 149.51 52.7212 148.82 51.8412Z" fill="#EFA82E"/>
<path fill-rule="evenodd" clip-rule="evenodd" d="M142.65 35.611V33.511C142.65 33.181 142.89 32.971 143.18 32.971H152.63C152.93 32.971 153.17 33.191 153.17 33.501V35.301C153.17 35.601 152.91 36.001 152.46 36.631L147.56 43.601C149.38 43.561 151.3 43.831 152.96 44.761C153.32 44.961 153.43 45.271 153.46 45.581V47.821C153.46 48.131 153.12 48.491 152.76 48.301C151.216 47.5086 149.504 47.097 147.768 47.1005C146.032 47.104 144.322 47.5224 142.78 48.321C142.45 48.491 142.11 48.141 142.11 47.831V45.701C142.11 45.361 142.11 44.771 142.46 44.251L148.13 36.141H143.19C143.12 36.1423 143.05 36.1296 142.984 36.1036C142.919 36.0775 142.859 36.0387 142.809 35.9894C142.759 35.94 142.719 35.8811 142.691 35.8162C142.664 35.7512 142.65 35.6815 142.65 35.611ZM108.2 48.741H105.32C105.194 48.7324 105.074 48.6796 104.983 48.5918C104.892 48.5041 104.834 48.387 104.82 48.261V33.541C104.82 33.241 105.06 33.011 105.37 33.011H108.04C108.32 33.021 108.54 33.241 108.56 33.511V35.431H108.62C109.32 33.571 110.62 32.701 112.4 32.701C114.2 32.701 115.32 33.571 116.13 35.431C116.416 34.6151 116.953 33.9111 117.665 33.4204C118.377 32.9298 119.226 32.6779 120.09 32.701C121.29 32.701 122.61 33.201 123.42 34.311C124.32 35.551 124.14 37.351 124.14 38.931V48.211C124.14 48.511 123.89 48.741 123.59 48.741H120.72C120.584 48.7361 120.454 48.6797 120.358 48.5832C120.262 48.4867 120.205 48.3573 120.2 48.221V40.421C120.2 39.791 120.26 38.241 120.12 37.661C119.9 36.661 119.26 36.391 118.43 36.391C117.73 36.391 117.01 36.851 116.71 37.591C116.42 38.341 116.45 39.581 116.45 40.411V48.211C116.45 48.511 116.2 48.741 115.89 48.741H113.02C112.886 48.7336 112.759 48.6762 112.664 48.5799C112.57 48.4837 112.515 48.3557 112.51 48.221V40.421C112.51 38.771 112.77 36.361 110.74 36.361C108.67 36.361 108.75 38.711 108.75 40.411V48.211C108.75 48.511 108.5 48.741 108.2 48.741ZM161.31 35.711C159.2 35.711 159.06 38.591 159.06 40.381C159.06 42.181 159.04 46.021 161.29 46.021C163.51 46.021 163.62 42.921 163.62 41.031C163.62 39.791 163.57 38.311 163.19 37.131C162.87 36.111 162.23 35.711 161.31 35.711ZM161.29 32.701C165.55 32.701 167.86 36.361 167.86 41.001C167.86 45.501 165.31 49.051 161.29 49.051C157.1 49.051 154.83 45.401 154.83 40.851C154.83 36.261 157.13 32.701 161.29 32.701ZM173.39 48.741H170.52C170.386 48.7336 170.259 48.6762 170.164 48.5799C170.07 48.4837 170.015 48.3557 170.01 48.221V33.481C170.027 33.3476 170.093 33.2251 170.194 33.1366C170.295 33.0482 170.426 32.9999 170.56 33.001H173.22C173.47 33.011 173.68 33.181 173.73 33.411V35.661H173.78C174.59 33.651 175.72 32.691 177.7 32.691C178.99 32.691 180.25 33.161 181.05 34.431C181.8 35.601 181.8 37.591 181.8 39.011V48.271C181.779 48.4008 181.711 48.5186 181.61 48.603C181.51 48.6874 181.382 48.7328 181.25 48.731H178.37C178.247 48.7232 178.13 48.6732 178.039 48.5895C177.948 48.5058 177.888 48.3934 177.87 48.271V40.271C177.87 38.671 178.05 36.321 176.07 36.321C175.37 36.321 174.72 36.781 174.4 37.491C174 38.391 173.94 39.291 173.94 40.281V48.201C173.94 48.501 173.69 48.731 173.39 48.731M138.01 48.701C137.916 48.7789 137.801 48.8264 137.68 48.8371C137.558 48.8479 137.436 48.8213 137.33 48.761C136.37 47.971 136.2 47.611 135.68 46.861C134.11 48.461 132.98 48.941 130.95 48.941C128.53 48.941 126.65 47.441 126.65 44.471C126.616 43.4694 126.891 42.4815 127.439 41.6422C127.986 40.8029 128.78 40.1529 129.71 39.781C131.27 39.101 133.45 38.981 135.11 38.781V38.421C135.11 37.731 135.17 36.921 134.76 36.341C134.41 35.811 133.74 35.591 133.15 35.591C132.05 35.591 131.08 36.151 130.84 37.311C130.79 37.571 130.6 37.831 130.34 37.841L127.56 37.541C127.32 37.491 127.06 37.301 127.13 36.941C127.77 33.571 130.82 32.541 133.55 32.541C134.95 32.541 136.78 32.921 137.88 33.981C139.28 35.281 139.14 37.021 139.14 38.911V43.381C139.14 44.721 139.7 45.311 140.23 46.041C140.41 46.301 140.45 46.611 140.22 46.801C139.63 47.291 138.59 48.201 138.02 48.701H138.01ZM135.11 41.701C135.11 42.821 135.14 43.751 134.57 44.751C134.12 45.551 133.39 46.051 132.59 46.051C131.49 46.051 130.84 45.211 130.84 43.971C130.84 41.531 133.04 41.091 135.11 41.091V41.701ZM100.35 48.701C100.256 48.7789 100.141 48.8264 100.02 48.8371C99.8981 48.8479 99.7762 48.8213 99.6702 48.761C98.7202 47.971 98.5502 47.611 98.0202 46.861C96.4502 48.461 95.3302 48.941 93.2902 48.941C90.8702 48.941 88.9902 47.441 88.9902 44.471C88.9557 43.4694 89.231 42.4815 89.7787 41.6422C90.3263 40.8029 91.1195 40.1529 92.0502 39.781C93.6102 39.101 95.7902 38.981 97.4502 38.781V38.421C97.4502 37.731 97.5102 36.921 97.1002 36.341C96.7602 35.811 96.0802 35.591 95.5002 35.591C94.4002 35.591 93.4202 36.151 93.1802 37.311C93.1302 37.571 92.9402 37.831 92.6802 37.841L89.9002 37.541C89.6702 37.491 89.4002 37.301 89.4702 36.941C90.1102 33.571 93.1702 32.541 95.9002 32.541C97.3002 32.541 99.1202 32.921 100.22 33.981C101.62 35.281 101.49 37.021 101.49 38.911V43.381C101.49 44.721 102.04 45.311 102.57 46.041C102.75 46.301 102.79 46.611 102.56 46.801C101.97 47.291 100.93 48.201 100.36 48.701H100.35ZM97.4502 41.701C97.4502 42.821 97.4802 43.751 96.9202 44.751C96.4602 45.551 95.7402 46.051 94.9202 46.051C93.8202 46.051 93.1802 45.211 93.1802 43.971C93.1802 41.531 95.3802 41.091 97.4602 41.091V41.701H97.4502Z" fill="#1B1A19"/>
</svg>
