<svg width="270" height="101" viewBox="0 0 270 101" fill="none" xmlns="http://www.w3.org/2000/svg">
<path d="M146.852 60.4809C146.852 67.0309 141.55 72.3329 135 72.3329V60.4809H146.852ZM135 48.6289V60.4809H123.148C123.148 53.9309 128.45 48.6289 135 48.6289Z" fill="#AAB4C1"/>
<path d="M135 48.6289C141.55 48.6289 146.852 53.9309 146.852 60.4789H135V48.6289ZM123.148 60.4789H135V72.3319C128.45 72.3319 123.148 67.0289 123.148 60.4789Z" fill="white"/>
<path d="M135 48.6285V49.2785C141.176 49.2785 146.202 54.3035 146.202 60.4805H146.851C146.851 53.9355 141.546 48.6285 135 48.6285ZM135 71.6825C128.824 71.6825 123.798 66.6575 123.798 60.4805H123.148C123.148 67.0255 128.454 72.3325 135 72.3325M135 40.4805C123.955 40.4805 115 49.4355 115 60.4805C115 71.5255 123.955 80.4805 135 80.4805C146.045 80.4805 155 71.5255 155 60.4805C155 49.4355 146.045 40.4805 135 40.4805ZM153.7 60.4805C153.7 70.8075 145.328 79.1805 135 79.1805C124.672 79.1805 116.3 70.8075 116.3 60.4805C116.3 50.1535 124.673 41.7805 135 41.7805C145.327 41.7805 153.7 50.1535 153.7 60.4805Z" fill="#AAB4C1"/>
<path d="M126.453 50.8312C127.093 50.1632 127.454 49.3912 126.816 48.6532C126.468 48.2532 125.883 48.1662 125.4 48.3632L125.351 48.3812L125.367 48.3392C125.438 48.1492 125.484 47.5422 124.963 47.1242C124.838 47.0259 124.694 46.9534 124.541 46.9108C124.387 46.8682 124.227 46.8565 124.069 46.8762C123.469 46.9362 123.007 47.3442 121.751 48.7362C121.313 49.2262 120.891 49.7302 120.487 50.2472L123.94 53.5002C125.084 52.2422 125.55 51.7762 126.453 50.8312ZM121.948 50.0362C122.644 49.1902 123.382 48.4242 123.717 48.1212C123.822 48.0252 123.937 47.9312 124.077 47.8922C124.304 47.8302 124.537 47.9902 124.591 48.2222C124.644 48.4542 124.497 48.6742 124.334 48.8562C123.966 49.2682 122.617 50.6692 122.617 50.6692L121.947 50.0352L121.948 50.0362ZM123.3 51.3102C123.3 51.3102 124.613 49.9302 125.042 49.4902C125.212 49.3152 125.322 49.2092 125.439 49.1512C125.591 49.0782 125.756 49.0632 125.905 49.1612C125.974 49.2064 126.029 49.2719 126.06 49.3487C126.091 49.4256 126.098 49.5103 126.08 49.5912C126.037 49.7872 125.875 49.9752 125.74 50.1192L124 51.9692L123.3 51.3102ZM135.395 46.9522L136.5 44.4922L136.571 44.2742L136.551 44.5022L136.667 47.7882C137.063 47.8262 137.458 47.8782 137.85 47.9442L137.67 43.0762C137.121 43.0164 136.57 42.974 136.019 42.9492L134.93 45.6332L134.892 45.8332L134.852 45.6332L133.764 42.9492C133.214 42.9722 132.664 43.0152 132.112 43.0762L131.932 47.9442C132.325 47.8792 132.72 47.8272 133.116 47.7882L133.232 44.5022L133.212 44.2742L133.282 44.4942L134.388 46.9522H135.395ZM144.576 52.0402C144.848 52.3302 145.239 52.7962 145.459 53.0802L149.504 50.5292C149.256 50.2095 149.001 49.8954 148.739 49.5872L146.177 51.2692L146.003 51.4192L146.133 51.2292L147.265 48.9872L146.465 48.1922L144.205 49.3162L144.015 49.4452L144.166 49.2712L145.862 46.7282C145.551 46.4664 145.234 46.2123 144.911 45.9662L142.343 49.9802C142.668 50.2282 143.097 50.5942 143.371 50.8422L145.788 49.5962L145.944 49.4832L145.83 49.6362L144.576 52.0402Z" fill="#AAB4C1"/>
<rect width="270" height="1" transform="translate(0 0.480469)" fill="white" fill-opacity="0.8"/>
<rect y="0.480469" width="270" height="1" fill="#0066B1"/>
</svg>
