<svg width="94" height="28" viewBox="0 0 94 28" fill="none" xmlns="http://www.w3.org/2000/svg">
<path fill-rule="evenodd" clip-rule="evenodd" d="M58.58 21.9112C53.18 25.9012 45.37 28.0012 38.64 28.0012C29.6447 28.0495 20.9548 24.7404 14.27 18.7212C13.77 18.2712 14.22 17.6412 14.83 18.0012C22.2523 22.2398 30.6528 24.4666 39.2 24.4612C45.18 24.4612 51.75 23.2212 57.8 20.6612C58.7 20.2712 59.47 21.2612 58.58 21.9112Z" fill="#EFA82E"/>
<path fill-rule="evenodd" clip-rule="evenodd" d="M60.82 19.3607C60.13 18.4807 56.26 18.9407 54.52 19.1507C54 19.2107 53.92 18.7507 54.39 18.4207C57.48 16.2507 62.54 16.8807 63.12 17.6007C63.72 18.3407 62.97 23.4007 60.08 25.8107C59.63 26.1907 59.21 25.9907 59.41 25.5007C60.06 23.8707 61.51 20.2407 60.82 19.3607Z" fill="#EFA82E"/>
<path fill-rule="evenodd" clip-rule="evenodd" d="M54.6502 3.13055V1.03055C54.6502 0.700546 54.8902 0.490546 55.1802 0.490546H64.6302C64.9302 0.490546 65.1702 0.710547 65.1702 1.02055V2.82055C65.1702 3.12055 64.9102 3.52055 64.4602 4.15055L59.5602 11.1205C61.3802 11.0805 63.3002 11.3505 64.9602 12.2805C65.3202 12.4805 65.4302 12.7905 65.4602 13.1005V15.3405C65.4602 15.6505 65.1202 16.0105 64.7602 15.8205C63.2155 15.0281 61.5038 14.6165 59.7678 14.62C58.0317 14.6235 56.3217 15.042 54.7802 15.8405C54.4502 16.0105 54.1102 15.6605 54.1102 15.3505V13.2205C54.1102 12.8805 54.1102 12.2905 54.4602 11.7705L60.1302 3.66055H55.1902C55.1198 3.66188 55.0498 3.64915 54.9843 3.62311C54.9188 3.59707 54.8592 3.55824 54.8089 3.50889C54.7587 3.45954 54.7187 3.40067 54.6915 3.33571C54.6642 3.27074 54.6502 3.201 54.6502 3.13055ZM20.2002 16.2605H17.3202C17.1938 16.2519 17.0744 16.1991 16.983 16.1114C16.8916 16.0236 16.834 15.9065 16.8202 15.7805V1.06055C16.8202 0.760547 17.0602 0.530546 17.3702 0.530546H20.0402C20.3202 0.540546 20.5402 0.760546 20.5602 1.03055V2.95055H20.6202C21.3202 1.09055 22.6202 0.220547 24.4002 0.220547C26.2002 0.220547 27.3202 1.09055 28.1302 2.95055C28.4159 2.13467 28.9534 1.43062 29.6651 0.939963C30.3769 0.449304 31.226 0.197387 32.0902 0.220547C33.2902 0.220547 34.6102 0.720546 35.4202 1.83055C36.3202 3.07055 36.1402 4.87055 36.1402 6.45055V15.7305C36.1402 16.0305 35.8902 16.2605 35.5902 16.2605H32.7202C32.5839 16.2556 32.4545 16.1992 32.358 16.1027C32.2615 16.0063 32.2052 15.8769 32.2002 15.7405V7.94055C32.2002 7.31055 32.2602 5.76055 32.1202 5.18055C31.9002 4.18055 31.2602 3.91055 30.4302 3.91055C29.7302 3.91055 29.0102 4.37055 28.7102 5.11055C28.4202 5.86055 28.4502 7.10055 28.4502 7.93055V15.7305C28.4502 16.0305 28.2002 16.2605 27.8902 16.2605H25.0202C24.8856 16.2531 24.7587 16.1957 24.6643 16.0995C24.57 16.0033 24.515 15.8752 24.5102 15.7405V7.94055C24.5102 6.29055 24.7702 3.88055 22.7402 3.88055C20.6702 3.88055 20.7502 6.23055 20.7502 7.93055V15.7305C20.7502 16.0305 20.5002 16.2605 20.2002 16.2605ZM73.3102 3.23055C71.2002 3.23055 71.0602 6.11055 71.0602 7.90055C71.0602 9.70055 71.0402 13.5405 73.2902 13.5405C75.5102 13.5405 75.6202 10.4405 75.6202 8.55055C75.6202 7.31055 75.5702 5.83055 75.1902 4.65055C74.8702 3.63055 74.2302 3.23055 73.3102 3.23055ZM73.2902 0.220547C77.5502 0.220547 79.8602 3.88055 79.8602 8.52055C79.8602 13.0205 77.3102 16.5705 73.2902 16.5705C69.1002 16.5705 66.8302 12.9205 66.8302 8.37055C66.8302 3.78055 69.1302 0.220547 73.2902 0.220547ZM85.3902 16.2605H82.5202C82.3856 16.2531 82.2587 16.1957 82.1643 16.0995C82.07 16.0033 82.015 15.8752 82.0102 15.7405V1.00055C82.0273 0.867121 82.0927 0.744596 82.1941 0.656145C82.2954 0.567695 82.4257 0.519454 82.5602 0.520547H85.2202C85.4702 0.530547 85.6802 0.700547 85.7302 0.930547V3.18055H85.7802C86.5902 1.17055 87.7202 0.210546 89.7002 0.210546C90.9902 0.210546 92.2502 0.680546 93.0502 1.95055C93.8002 3.12055 93.8002 5.11055 93.8002 6.53055V15.7905C93.7787 15.9203 93.7114 16.0381 93.6105 16.1225C93.5095 16.2069 93.3817 16.2523 93.2502 16.2505H90.3702C90.2468 16.2427 90.1298 16.1928 90.0388 16.109C89.9478 16.0253 89.8883 15.9129 89.8702 15.7905V7.79055C89.8702 6.19055 90.0502 3.84055 88.0702 3.84055C87.3702 3.84055 86.7202 4.30055 86.4002 5.01055C86.0002 5.91055 85.9402 6.81055 85.9402 7.80055V15.7205C85.9402 16.0205 85.6902 16.2505 85.3902 16.2505M50.0102 16.2205C49.9164 16.2985 49.801 16.346 49.6796 16.3567C49.5581 16.3674 49.4362 16.3408 49.3302 16.2805C48.3702 15.4905 48.2002 15.1305 47.6802 14.3805C46.1102 15.9805 44.9802 16.4605 42.9502 16.4605C40.5302 16.4605 38.6502 14.9605 38.6502 11.9905C38.6157 10.9889 38.891 10.0011 39.4387 9.16173C39.9863 8.32239 40.7795 7.67243 41.7102 7.30055C43.2702 6.62055 45.4502 6.50055 47.1102 6.30055V5.94055C47.1102 5.25055 47.1702 4.44055 46.7602 3.86055C46.4102 3.33055 45.7402 3.11055 45.1502 3.11055C44.0502 3.11055 43.0802 3.67055 42.8402 4.83055C42.7902 5.09055 42.6002 5.35055 42.3402 5.36055L39.5602 5.06055C39.3202 5.01055 39.0602 4.82055 39.1302 4.46055C39.7702 1.09055 42.8202 0.0605469 45.5502 0.0605469C46.9502 0.0605469 48.7802 0.440547 49.8802 1.50055C51.2802 2.80055 51.1402 4.54055 51.1402 6.43055V10.9005C51.1402 12.2405 51.7002 12.8305 52.2302 13.5605C52.4102 13.8205 52.4502 14.1305 52.2202 14.3205C51.6302 14.8105 50.5902 15.7205 50.0202 16.2205H50.0102ZM47.1102 9.22055C47.1102 10.3405 47.1402 11.2705 46.5702 12.2705C46.1202 13.0705 45.3902 13.5705 44.5902 13.5705C43.4902 13.5705 42.8402 12.7305 42.8402 11.4905C42.8402 9.05055 45.0402 8.61055 47.1102 8.61055V9.22055ZM12.3502 16.2205C12.2564 16.2985 12.141 16.346 12.0196 16.3567C11.8981 16.3674 11.7762 16.3408 11.6702 16.2805C10.7202 15.4905 10.5502 15.1305 10.0202 14.3805C8.45019 15.9805 7.33019 16.4605 5.29019 16.4605C2.87019 16.4605 0.990194 14.9605 0.990194 11.9905C0.955684 10.9889 1.23103 10.0011 1.77866 9.16173C2.32629 8.32239 3.11954 7.67243 4.05019 7.30055C5.61019 6.62055 7.79019 6.50055 9.45019 6.30055V5.94055C9.45019 5.25055 9.51019 4.44055 9.10019 3.86055C8.76019 3.33055 8.08019 3.11055 7.50019 3.11055C6.40019 3.11055 5.42019 3.67055 5.18019 4.83055C5.13019 5.09055 4.94019 5.35055 4.68019 5.36055L1.90019 5.06055C1.67019 5.01055 1.40019 4.82055 1.47019 4.46055C2.11019 1.09055 5.17019 0.0605469 7.90019 0.0605469C9.30019 0.0605469 11.1202 0.440547 12.2202 1.50055C13.6202 2.80055 13.4902 4.54055 13.4902 6.43055V10.9005C13.4902 12.2405 14.0402 12.8305 14.5702 13.5605C14.7502 13.8205 14.7902 14.1305 14.5602 14.3205C13.9702 14.8105 12.9302 15.7205 12.3602 16.2205H12.3502ZM9.45019 9.22055C9.45019 10.3405 9.48019 11.2705 8.92019 12.2705C8.46019 13.0705 7.74019 13.5705 6.92019 13.5705C5.82019 13.5705 5.18019 12.7305 5.18019 11.4905C5.18019 9.05055 7.38019 8.61055 9.46019 8.61055V9.22055H9.45019Z" fill="#1B1A19"/>
</svg>
