<svg width="200" height="40" viewBox="0 0 200 40" fill="none" xmlns="http://www.w3.org/2000/svg">
<path d="M92.6001 21.6509C92.6136 22.7577 92.4051 23.8559 91.9868 24.8807C91.5686 25.9055 90.9492 26.836 90.1651 27.6172C89.381 28.3985 88.4483 29.0146 87.4221 29.4292C86.3958 29.8438 85.2968 30.0484 84.1901 30.0309C83.0842 30.047 81.9864 29.8414 80.9613 29.4262C79.9362 29.0111 79.0046 28.3947 78.2216 27.6136C77.4387 26.8325 76.8201 25.9024 76.4025 24.8783C75.9849 23.8542 75.7766 22.7568 75.7901 21.6509C75.7725 20.5439 75.9779 19.4446 76.394 18.4186C76.8102 17.3926 77.4286 16.4609 78.2124 15.679C78.9962 14.897 79.9294 14.2808 80.9564 13.8671C81.9834 13.4534 83.0831 13.2506 84.1901 13.2709C88.8201 13.2709 92.5901 16.7909 92.5901 21.6509H92.6001ZM88.9101 21.6509C88.9101 18.6309 86.7201 16.5709 84.1901 16.5709C81.6501 16.5709 79.4601 18.6309 79.4601 21.6509C79.4601 24.6309 81.6501 26.7209 84.1901 26.7209C86.7201 26.7209 88.9101 24.6209 88.9101 21.6509Z" fill="#EA4335"/>
<path d="M110.73 21.6507C110.743 22.7575 110.535 23.8557 110.117 24.8805C109.698 25.9053 109.079 26.8358 108.295 27.6171C107.511 28.3983 106.578 29.0144 105.552 29.429C104.526 29.8436 103.427 30.0482 102.32 30.0307C101.214 30.0468 100.116 29.8412 99.091 29.4261C98.0659 29.0109 97.1343 28.3945 96.3514 27.6134C95.5684 26.8323 94.9498 25.9022 94.5322 24.8781C94.1146 23.854 93.9064 22.7566 93.9198 21.6507C93.9036 20.5441 94.1099 19.4454 94.5266 18.4201C94.9432 17.3947 95.5617 16.4635 96.3452 15.6819C97.1288 14.9002 98.0614 14.284 99.0877 13.8698C100.114 13.4556 101.213 13.2519 102.32 13.2707C106.95 13.2707 110.72 16.7907 110.72 21.6507H110.73ZM107.05 21.6507C107.05 18.6307 104.85 16.5707 102.32 16.5707C99.7798 16.5707 97.5898 18.6307 97.5898 21.6507C97.5898 24.6307 99.7898 26.7207 102.32 26.7207C104.86 26.7207 107.05 24.6207 107.05 21.6507Z" fill="#FBBC05"/>
<path d="M128.1 13.7695V28.8195C128.1 34.9995 124.45 37.5295 120.14 37.5295C118.55 37.5398 116.994 37.0751 115.67 36.195C114.346 35.3148 113.316 34.0593 112.71 32.5895L115.91 31.2595C116.24 32.119 116.819 32.8607 117.572 33.3897C118.326 33.9187 119.22 34.2111 120.14 34.2295C122.9 34.2295 124.61 32.5295 124.61 29.3295V28.1195H124.48C123.927 28.738 123.247 29.2284 122.485 29.5566C121.723 29.8847 120.899 30.0427 120.07 30.0195C115.87 30.0195 112.04 26.3695 112.04 21.6795C112.04 16.9495 115.88 13.2695 120.07 13.2695C122.07 13.2695 123.65 14.1495 124.48 15.1395H124.61V13.7795H128.11L128.1 13.7695ZM124.87 21.6695C124.87 18.7295 122.9 16.5695 120.4 16.5695C117.86 16.5695 115.73 18.7295 115.73 21.6695C115.73 24.5995 117.86 26.7195 120.4 26.7195C122.9 26.7195 124.87 24.5995 124.87 21.6795V21.6695Z" fill="#4285F4"/>
<path d="M133.86 4.96094V29.5009H130.27V4.96094H133.86Z" fill="#34A853"/>
<path d="M147.85 24.3998L150.71 26.2998C149.945 27.4505 148.905 28.3929 147.685 29.0422C146.465 29.6915 145.102 30.0275 143.72 30.0198C142.619 30.0348 141.526 29.8278 140.506 29.4111C139.486 28.9944 138.561 28.3766 137.786 27.5944C137.01 26.8123 136.4 25.8819 135.992 24.8589C135.584 23.8358 135.386 22.741 135.41 21.6398C135.41 16.6598 138.99 13.2598 143.31 13.2598C147.66 13.2598 149.79 16.7198 150.48 18.5898L150.86 19.5498L139.66 24.1798C140.004 24.9613 140.576 25.6214 141.299 26.0743C142.023 26.5272 142.867 26.7521 143.72 26.7198C145.6 26.7198 146.9 25.7998 147.85 24.3998ZM139.05 21.3898L146.55 18.2798C146.13 17.2298 144.9 16.4998 143.44 16.4998C142.83 16.5277 142.231 16.6771 141.679 16.9391C141.126 17.2012 140.632 17.5706 140.224 18.0258C139.816 18.4811 139.504 19.0131 139.304 19.5906C139.104 20.1682 139.021 20.7798 139.06 21.3898H139.05Z" fill="#EA4335"/>
<path d="M62.2 19.47V15.9H74.18C74.29 16.52 74.35 17.25 74.35 18.05C74.35 20.71 73.62 24.01 71.27 26.36C68.99 28.74 66.07 30.01 62.2 30.01C55.03 30.01 49 24.17 49 17.01C49 9.83 55.03 4 62.2 4C66.17 4 69 5.56 71.12 7.59L68.61 10.09C66.8916 8.43162 64.5879 7.51877 62.2 7.55C60.9629 7.54855 59.7379 7.79314 58.5962 8.26954C57.4545 8.74593 56.419 9.44461 55.5498 10.3249C54.6807 11.2053 53.9953 12.2496 53.5335 13.3973C53.0717 14.545 52.8428 15.773 52.86 17.01C52.86 22.25 56.96 26.47 62.2 26.47C63.4161 26.5203 64.6291 26.3149 65.7608 25.867C66.8925 25.4192 67.9177 24.7388 68.77 23.87C69.77 22.86 70.43 21.42 70.69 19.47H62.19H62.2Z" fill="#4285F4"/>
</svg>
