<svg width="200" height="40" viewBox="0 0 200 40" fill="none" xmlns="http://www.w3.org/2000/svg">
<path d="M123.579 35.9658H122.06V35.1928H125.936V35.9658H124.417V39.8818H123.579V35.9658ZM118.274 35.9658H116.768V35.1928H120.632V35.9658H119.126V39.8818H118.274V35.9658ZM108.975 35.1928H108.137V39.8828H108.975V35.1928ZM104.208 37.3018C104.417 37.3018 104.587 37.2368 104.705 37.1058C104.826 36.974 104.892 36.8002 104.889 36.6208C104.892 36.4376 104.827 36.2597 104.705 36.1228C104.641 36.0603 104.565 36.0117 104.482 35.9802C104.399 35.9487 104.31 35.935 104.221 35.9398H103.33V37.3018H104.208ZM102.518 35.1928H104.208C104.483 35.1928 104.732 35.2328 104.928 35.3238C105.101 35.3963 105.255 35.5053 105.382 35.6434C105.509 35.7815 105.604 35.9454 105.661 36.1238C105.714 36.2938 105.74 36.4508 105.74 36.5938C105.74 36.8828 105.675 37.1578 105.557 37.3808C105.424 37.6132 105.229 37.8038 104.994 37.9308L106.028 39.8948H105.072L104.168 38.0488H103.33V39.8948H102.518V35.1928ZM98.7978 37.3018C99.0078 37.3018 99.1778 37.2368 99.2958 37.1058C99.417 36.9738 99.4826 36.8 99.4788 36.6208C99.4826 36.4377 99.4172 36.2599 99.2958 36.1228C99.2321 36.0602 99.1561 36.0116 99.0726 35.9801C98.9891 35.9486 98.8999 35.9349 98.8108 35.9398H97.9208V37.3018H98.7978ZM97.0958 35.1928H98.7858C99.0598 35.1928 99.3088 35.2328 99.5058 35.3238C99.7018 35.4158 99.8588 35.5208 99.9768 35.6638C100.095 35.8088 100.187 35.9528 100.239 36.1238C100.306 36.3298 100.331 36.5471 100.313 36.7629C100.295 36.9788 100.234 37.1888 100.134 37.3808C100.001 37.6134 99.8063 37.804 99.5708 37.9308L100.606 39.8948H99.6498L98.7458 38.0488H97.8948V39.8948H97.0818V35.1928H97.0958ZM93.7688 37.9568L93.1788 36.1368L92.5768 37.9568H93.7688ZM92.7598 35.1928H93.6248L95.3148 39.8828H94.3708L93.9778 38.6898H92.3148L91.9218 39.8818H91.0438L92.7598 35.1928ZM84.9278 35.1928H85.7138L87.0498 37.4068L88.3728 35.1928H89.1578L89.3678 39.8828H88.5558L88.3988 36.6338L87.2328 38.5458H86.8268L85.6478 36.6728L85.5038 39.8828H84.7178L84.9278 35.1928ZM113.337 39.1748C113.54 39.1799 113.742 39.1375 113.926 39.0511C114.11 38.9647 114.272 38.8365 114.398 38.6768C114.529 38.5198 114.62 38.3488 114.686 38.1398C114.751 37.9428 114.791 37.7338 114.791 37.5108C114.791 37.2878 114.751 37.0788 114.686 36.8688C114.627 36.6766 114.529 36.4985 114.398 36.3458C114.276 36.1921 114.118 36.0705 113.939 35.9918C113.751 35.9009 113.545 35.856 113.337 35.8608C113.114 35.8608 112.918 35.9008 112.734 35.9908C112.559 36.0812 112.405 36.2054 112.279 36.3562C112.153 36.5069 112.059 36.6812 112.001 36.8688C111.862 37.2807 111.862 37.7269 112.001 38.1388C112.066 38.3358 112.158 38.5188 112.289 38.6768C112.42 38.8338 112.564 38.9518 112.734 39.0438C112.918 39.1218 113.114 39.1748 113.337 39.1748ZM113.337 39.9998C113.009 39.9998 112.708 39.9338 112.42 39.8028C112.145 39.6755 111.896 39.4977 111.686 39.2788C111.471 39.051 111.303 38.7842 111.189 38.4928C110.945 37.8699 110.945 37.1778 111.189 36.5548C111.307 36.2538 111.477 35.9918 111.686 35.7688C111.896 35.5468 112.132 35.3758 112.42 35.2448C112.708 35.1148 113.009 35.0488 113.337 35.0488C113.664 35.0488 113.965 35.1138 114.254 35.2448C114.529 35.3758 114.777 35.5468 114.987 35.7688C115.197 35.9918 115.367 36.2538 115.485 36.5548C115.729 37.1777 115.729 37.8699 115.485 38.4928C115.371 38.7845 115.202 39.0514 114.987 39.2788C114.781 39.5018 114.531 39.6801 114.254 39.8028C113.966 39.9343 113.653 40.0015 113.337 39.9998Z" fill="black"/>
<path d="M107.534 30.504H115.065L102.466 0.484L96.14 3.55L100.54 14.002L98.497 18.862L90.612 0L84.221 2.92L89.355 14.97L89.329 15.023C86.159 22.633 82.282 24.715 81.902 24.859C80.6969 25.3551 79.3852 25.5354 78.091 25.383L75 32.011C76.022 32.6 77.174 32.941 78.392 32.941C79.938 32.941 81.352 32.403 82.532 31.513L82.518 31.539C82.518 31.539 85.438 30.059 88.569 21.951C88.569 21.938 89.722 19.358 90.337 17.708L90.403 17.525L95.903 30.517H103.422L99.545 21.375L101.601 16.516L107.534 30.504Z" fill="#A11D2B"/>
</svg>
