<svg width="130" height="30" viewBox="0 0 130 30" fill="none" xmlns="http://www.w3.org/2000/svg">
<path d="M14.99 5.13878e-05C6.797 5.13878e-05 0.128001 6.66805 0.124001 14.8641C0.124001 17.4841 0.808001 20.0421 2.109 22.2961L0 30.0001L7.88 27.9331C10.0596 29.1202 12.502 29.7421 14.984 29.7421H14.99C23.183 29.7421 29.852 23.0721 29.856 14.8771C29.8624 12.9235 29.4812 10.9881 28.7345 9.1828C27.9878 7.37755 26.8905 5.73834 25.506 4.36005C24.1288 2.9737 22.4901 1.87446 20.685 1.12604C18.8799 0.37762 16.9441 -0.00510351 14.99 5.13878e-05ZM14.99 27.2311H14.985C12.769 27.2311 10.593 26.6341 8.697 25.5091L8.246 25.2421L3.57 26.4681L4.818 21.9091L4.524 21.4421C3.28629 19.4722 2.63106 17.1924 2.634 14.8661C2.637 8.05305 8.18 2.51105 14.996 2.51105C18.296 2.51205 21.398 3.79905 23.73 6.13505C24.8806 7.2805 25.7926 8.64274 26.4132 10.1429C27.0339 11.6431 27.351 13.2515 27.346 14.8751C27.344 21.6881 21.801 27.2311 14.99 27.2311ZM21.767 17.9781C21.397 17.7921 19.57 16.8931 19.229 16.7691C18.889 16.6451 18.641 16.5831 18.393 16.9551C18.146 17.3271 17.434 18.1641 17.218 18.4121C17.001 18.6601 16.784 18.6911 16.413 18.5051C16.042 18.319 14.844 17.9251 13.426 16.6611C12.322 15.6761 11.576 14.4591 11.36 14.0881C11.144 13.7161 11.337 13.5151 11.523 13.3301C11.69 13.1641 11.894 12.8961 12.08 12.6791C12.266 12.4621 12.328 12.3071 12.451 12.0591C12.575 11.8111 12.513 11.5941 12.421 11.4081C12.327 11.2221 11.584 9.39305 11.275 8.65005C10.973 7.92605 10.667 8.02305 10.439 8.01205C10.2018 8.00177 9.96441 7.99744 9.727 7.99905C9.48 7.99905 9.077 8.09205 8.737 8.46405C8.396 8.83605 7.437 9.73405 7.437 11.5621C7.437 13.3911 8.767 15.1571 8.953 15.4051C9.139 15.6531 11.572 19.4051 15.298 21.0131C16.184 21.3961 16.876 21.6241 17.416 21.7951C18.306 22.0781 19.116 22.0381 19.755 21.9421C20.468 21.8351 21.953 21.0441 22.262 20.1751C22.572 19.3081 22.572 18.5651 22.478 18.4091C22.385 18.2541 22.138 18.1611 21.767 17.9751V17.9781ZM48.066 17.7511H48.026L45.561 7.80805H42.591L40.086 17.6301H40.046L37.763 7.80905H34.592L38.41 22.2381H41.622L44.026 12.4161H44.066L46.511 22.2381H49.663L53.542 7.80805H50.43L48.066 17.7511ZM63.218 12.6891C62.935 12.3191 62.548 12.0291 62.057 11.8191C61.565 11.6121 60.935 11.5081 60.167 11.5081C59.629 11.5081 59.077 11.6451 58.511 11.9221C57.945 12.1981 57.481 12.6391 57.117 13.2461H57.056V7.80905H54.188V22.2371H57.056V16.7601C57.056 15.6951 57.231 14.9311 57.582 14.4661C57.932 14.0011 58.498 13.7691 59.279 13.7691C59.965 13.7691 60.443 13.9811 60.713 14.4061C60.983 14.8301 61.118 15.4731 61.118 16.3351V22.2351H63.987V15.8101C63.987 15.1631 63.929 14.5741 63.815 14.0411C63.7 13.5111 63.501 13.0601 63.218 12.6891ZM75.036 19.9131V14.4781C75.036 13.8431 74.896 13.3351 74.612 12.9521C74.3283 12.5669 73.9539 12.2578 73.522 12.0521C73.056 11.8304 72.5578 11.6839 72.046 11.6181C71.5175 11.5448 70.9846 11.5077 70.451 11.5071C69.872 11.5071 69.296 11.5631 68.724 11.6791C68.18 11.7829 67.6573 11.9776 67.178 12.2551C66.7248 12.521 66.3383 12.887 66.048 13.3251C65.751 13.7701 65.582 14.3291 65.542 15.0031H68.411C68.465 14.4381 68.654 14.0331 68.977 13.7901C69.3 13.5481 69.745 13.4271 70.31 13.4271C70.566 13.4271 70.805 13.4441 71.027 13.4771C71.249 13.5121 71.444 13.5771 71.613 13.6791C71.781 13.7801 71.916 13.9221 72.017 14.1041C72.118 14.2861 72.168 14.5321 72.168 14.8411C72.181 15.1381 72.093 15.3621 71.906 15.5181C71.716 15.6731 71.461 15.7921 71.137 15.8721C70.7718 15.9606 70.4004 16.0212 70.026 16.0531C69.608 16.0951 69.184 16.1501 68.754 16.2161C68.322 16.2831 67.895 16.3741 67.471 16.4881C67.0669 16.5933 66.6839 16.7676 66.339 17.0031C66.009 17.2331 65.739 17.5391 65.53 17.9231C65.322 18.3071 65.217 18.7971 65.217 19.3881C65.217 19.9271 65.308 20.3921 65.49 20.7821C65.672 21.1741 65.925 21.4961 66.248 21.7521C66.571 22.0091 66.948 22.1981 67.379 22.3191C67.809 22.4401 68.275 22.5011 68.773 22.5011C69.4165 22.5011 70.0565 22.4057 70.672 22.2181C71.287 22.0316 71.8438 21.6904 72.289 21.2271C72.3136 21.5708 72.3811 21.9101 72.49 22.2371H75.4C75.265 22.0221 75.17 21.6991 75.116 21.2671C75.0609 20.8178 75.0348 20.3656 75.036 19.9131ZM72.168 18.1951C72.168 18.3581 72.152 18.5741 72.118 18.8431C72.085 19.1131 71.993 19.3781 71.845 19.6411C71.696 19.9041 71.467 20.1311 71.157 20.3181C70.848 20.5081 70.41 20.6011 69.844 20.6011C69.615 20.6011 69.393 20.5811 69.177 20.5401C68.9767 20.5055 68.7847 20.4336 68.611 20.3281C68.4488 20.2259 68.3163 20.0827 68.227 19.9131C68.1273 19.7127 68.0788 19.4907 68.086 19.2671C68.086 18.9981 68.133 18.7751 68.227 18.6001C68.3178 18.4291 68.446 18.2807 68.602 18.1661C68.7675 18.0459 68.9516 17.9536 69.147 17.8931C69.355 17.8261 69.567 17.7721 69.784 17.7311C70.012 17.6911 70.242 17.6561 70.47 17.6311C70.7 17.6041 70.918 17.5701 71.127 17.5291C71.336 17.489 71.531 17.4391 71.714 17.3781C71.895 17.3171 72.046 17.2341 72.168 17.1251V18.1951ZM80.391 8.65805H77.522V11.7891H75.785V13.7091H77.522V19.8731C77.522 20.3991 77.61 20.8231 77.785 21.1461C77.961 21.4691 78.2 21.7201 78.502 21.8941C78.8269 22.0771 79.1835 22.1969 79.553 22.2471C79.95 22.3071 80.372 22.3381 80.816 22.3381C81.1 22.3381 81.389 22.3311 81.686 22.3191C81.9567 22.3081 82.2265 22.281 82.494 22.2381V20.0151C82.3536 20.0431 82.2117 20.0632 82.069 20.0751C81.9148 20.0899 81.7599 20.0969 81.605 20.0961C81.121 20.0961 80.797 20.0151 80.635 19.8531C80.474 19.6911 80.394 19.3681 80.394 18.8831V13.7091H82.495V11.7891H80.394V8.65705H80.391V8.65805ZM92.249 17.6611C92.063 17.3336 91.8081 17.0504 91.502 16.8311C91.1763 16.6019 90.8189 16.4217 90.441 16.2961C90.0397 16.1612 89.6318 16.0468 89.219 15.9531C88.8228 15.8601 88.4255 15.7725 88.027 15.6901C87.6752 15.619 87.3276 15.5282 86.986 15.4181C86.7175 15.335 86.4676 15.2008 86.25 15.0231C86.1585 14.947 86.0856 14.8511 86.0367 14.7426C85.9879 14.6341 85.9644 14.516 85.968 14.3971C85.968 14.1811 86.02 14.0091 86.129 13.8821C86.2362 13.7553 86.371 13.6548 86.523 13.5881C86.679 13.5211 86.849 13.4781 87.038 13.4571C87.226 13.4371 87.402 13.4271 87.563 13.4271C88.074 13.4271 88.519 13.5251 88.897 13.7201C89.274 13.9161 89.483 14.2901 89.522 14.8411H92.25C92.196 14.1951 92.031 13.6591 91.755 13.2341C91.4895 12.8202 91.134 12.4715 90.715 12.2141C90.2761 11.9491 89.7936 11.7643 89.29 11.6681C88.7484 11.5596 88.1973 11.5056 87.645 11.5071C87.08 11.5071 86.526 11.5571 85.989 11.6571C85.4775 11.7485 84.9854 11.9267 84.534 12.1841C84.1061 12.4302 83.7479 12.7813 83.493 13.2041C83.23 13.6341 83.099 14.1871 83.099 14.8611C83.099 15.3191 83.193 15.7071 83.383 16.0241C83.57 16.3411 83.82 16.6021 84.128 16.8121C84.44 17.0201 84.793 17.1901 85.19 17.3171C85.587 17.4471 85.995 17.5571 86.412 17.6511C87.437 17.8671 88.235 18.0821 88.807 18.2991C89.38 18.5141 89.665 18.8371 89.665 19.2691C89.665 19.5251 89.605 19.7351 89.484 19.9041C89.3645 20.0711 89.209 20.2092 89.029 20.3081C88.8395 20.4124 88.6351 20.4873 88.423 20.5301C88.2138 20.5761 88.0002 20.5999 87.786 20.6011C87.503 20.6011 87.231 20.5671 86.968 20.5011C86.7183 20.4392 86.4819 20.3329 86.27 20.1871C86.0668 20.0437 85.8978 19.8573 85.775 19.6411C85.6419 19.3966 85.5757 19.1213 85.583 18.8431H82.856C82.884 19.5431 83.041 20.1261 83.332 20.5911C83.6103 21.0458 83.9903 21.4298 84.442 21.7131C84.893 21.9951 85.409 22.1981 85.989 22.3191C87.1511 22.5588 88.3496 22.5622 89.513 22.3291C90.054 22.2272 90.5713 22.025 91.038 21.7331C91.4826 21.4509 91.8532 21.0666 92.119 20.6121C92.395 20.1461 92.533 19.5711 92.533 18.8831C92.533 18.3981 92.439 17.9911 92.251 17.6621L92.249 17.6611ZM97.946 7.80805L92.491 22.2381H95.683L96.814 19.0241H102.208L103.298 22.2381H106.592L101.198 7.80805H97.946ZM97.643 16.6611L99.522 11.3661H99.562L101.381 16.6611H97.643ZM116.512 13.2051C116.118 12.6899 115.614 12.2691 115.037 11.9731C114.445 11.6631 113.738 11.5081 112.917 11.5081C112.27 11.5081 111.678 11.6351 111.139 11.8911C110.599 12.1471 110.156 12.5581 109.806 13.1241H109.765V11.7891H107.037V25.8961H109.908V20.9451H109.947C110.297 21.4571 110.746 21.8441 111.292 22.1051C111.85 22.371 112.462 22.5061 113.08 22.5001C113.848 22.5001 114.518 22.3501 115.09 22.0551C115.65 21.7683 116.14 21.3609 116.524 20.8621C116.915 20.3482 117.207 19.7659 117.384 19.1451C117.57 18.4981 117.666 17.8251 117.666 17.1241C117.666 16.3831 117.57 15.6731 117.384 14.9911C117.211 14.3451 116.915 13.7382 116.514 13.2031L116.512 13.2051ZM114.674 18.2771C114.592 18.6821 114.454 19.0351 114.26 19.3371C114.064 19.6411 113.809 19.8871 113.491 20.0761C113.175 20.2641 112.781 20.3601 112.31 20.3601C111.839 20.3601 111.462 20.2651 111.139 20.0761C110.824 19.896 110.557 19.6429 110.361 19.3381C110.156 19.0131 110.013 18.6536 109.937 18.2771C109.849 17.8723 109.805 17.4592 109.806 17.0451C109.806 16.6291 109.845 16.1951 109.926 15.7921C109.998 15.4123 110.139 15.0489 110.342 14.7201C110.535 14.4101 110.792 14.1591 111.11 13.9631C111.426 13.7681 111.819 13.6691 112.291 13.6691C112.762 13.6691 113.137 13.7681 113.452 13.9631C113.769 14.1581 114.029 14.4131 114.23 14.7311C114.432 15.0481 114.576 15.4081 114.665 15.8111C114.752 16.2169 114.796 16.6309 114.795 17.0461C114.795 17.4641 114.755 17.8741 114.674 18.2761V18.2771ZM128.815 14.9931C128.643 14.3468 128.348 13.7398 127.946 13.2051C127.552 12.6902 127.049 12.2694 126.472 11.9731C125.879 11.6631 125.171 11.5081 124.35 11.5081C123.704 11.5081 123.111 11.6351 122.573 11.8911C122.034 12.1471 121.589 12.5581 121.239 13.1241H121.2V11.7891H118.472V25.8961H121.341V20.9451H121.382C121.732 21.4571 122.18 21.8441 122.725 22.1051C123.283 22.3708 123.895 22.5059 124.513 22.5001C125.281 22.5001 125.95 22.3501 126.523 22.0551C127.084 21.7686 127.573 21.3611 127.957 20.8621C128.342 20.3631 128.627 19.7921 128.816 19.1451C129.005 18.4981 129.099 17.8251 129.099 17.1241C129.099 16.3831 129.005 15.6731 128.816 14.9911L128.815 14.9931ZM126.107 18.2771C126.038 18.6536 125.898 19.0135 125.693 19.3371C125.497 19.6411 125.242 19.8871 124.925 20.0761C124.609 20.2641 124.215 20.3601 123.743 20.3601C123.272 20.3601 122.895 20.2651 122.571 20.0761C122.256 19.896 121.989 19.6429 121.793 19.3381C121.589 19.0129 121.445 18.6534 121.369 18.2771C121.281 17.8723 121.237 17.4593 121.237 17.0451C121.237 16.6291 121.278 16.1951 121.359 15.7921C121.431 15.4124 121.571 15.049 121.774 14.7201C121.968 14.4101 122.225 14.1591 122.542 13.9631C122.857 13.7681 123.252 13.6691 123.723 13.6691C124.195 13.6691 124.568 13.7681 124.884 13.9631C125.202 14.1581 125.461 14.4131 125.663 14.7311C125.865 15.0481 126.011 15.4081 126.097 15.8111C126.186 16.2161 126.229 16.6281 126.229 17.0461C126.229 17.4641 126.188 17.8741 126.107 18.2761V18.2771Z" fill="#25D366"/>
</svg>
