<svg width="40" height="41" viewBox="0 0 40 41" fill="none" xmlns="http://www.w3.org/2000/svg">
<path d="M28.1426 0.701172C29.2034 0.701172 30.2209 1.1226 30.971 1.87275C31.7211 2.62289 32.1426 3.64031 32.1426 4.70117V21.7012C32.1426 22.762 31.7211 23.7795 30.971 24.5296C30.2209 25.2797 29.2034 25.7012 28.1426 25.7012H4.14258C3.08171 25.7012 2.0643 25.2797 1.31415 24.5296C0.564006 23.7795 0.142578 22.762 0.142578 21.7012V4.70117C0.142578 3.64031 0.564006 2.62289 1.31415 1.87275C2.0643 1.1226 3.08171 0.701172 4.14258 0.701172H28.1426ZM4.94258 5.87117L4.27258 6.62117C4.19489 6.70865 4.15035 6.82061 4.14669 6.93755C4.14304 7.05449 4.18051 7.16901 4.25258 7.26117L4.31258 7.32117L7.60258 10.2412L4.30258 13.1612C4.20685 13.2506 4.15008 13.3741 4.14447 13.505C4.13886 13.636 4.18486 13.7638 4.27258 13.8612L4.93258 14.6212C5.11258 14.8212 5.43258 14.8412 5.63258 14.6612L10.6026 10.2412L5.64258 5.83117C5.54397 5.7447 5.41533 5.70043 5.28439 5.70792C5.15345 5.7154 5.03069 5.77403 4.94258 5.87117Z" fill="#00D4FF"/>
<path d="M11.7826 12.7012H18.5026C18.7226 12.7012 18.8026 12.7212 18.8826 12.7712C18.9726 12.8112 19.0326 12.8712 19.0826 12.9612C19.1226 13.0412 19.1426 13.1212 19.1426 13.3412V14.0612C19.1426 14.2812 19.1226 14.3612 19.0726 14.4412C19.0317 14.5261 18.9653 14.596 18.8826 14.6412C18.8026 14.6812 18.7226 14.7012 18.5026 14.7012H11.7826C11.5626 14.7012 11.4826 14.6812 11.4026 14.6312C11.3177 14.5903 11.2477 14.5239 11.2026 14.4412C11.1626 14.3612 11.1426 14.2812 11.1426 14.0612V13.3412C11.1426 13.1212 11.1626 13.0412 11.2126 12.9612C11.2526 12.8712 11.3126 12.8112 11.4026 12.7612C11.4826 12.7212 11.5626 12.7012 11.7826 12.7012Z" fill="#0A2540"/>
<path d="M26.6426 14.7012L27.7726 17.8312L28.4126 17.9612L30.6526 15.5012L31.5826 15.8812L31.4226 19.2112C31.6126 19.3212 31.7926 19.4412 31.9626 19.5712L34.9826 18.1512L35.6826 18.8612L34.2726 21.8812C34.4026 22.0512 34.5226 22.2312 34.6326 22.4212L37.9626 22.2612L38.3426 23.1912L35.8826 25.4312C35.9326 25.6412 35.9826 25.8512 36.0126 26.0712L39.1426 27.2012V28.2012L36.0126 29.3312C35.9726 29.5812 35.9126 29.8312 35.8626 30.0612L38.3426 32.2112L37.9626 33.1412L34.6826 32.9012C34.5426 33.1412 34.3826 33.3712 34.2126 33.6012L35.6926 36.5412L34.9826 37.2412L32.0426 35.7712C31.8126 35.9412 31.5826 36.1012 31.3426 36.2412L31.5826 39.5212L30.6526 39.9012L28.5026 37.4212C28.2326 37.4812 27.9626 37.5412 27.6826 37.5812L26.6426 40.7012H25.6426L24.6026 37.5812C24.3226 37.5412 24.0526 37.4812 23.7826 37.4212L21.6326 39.9012L20.7026 39.5212L20.9426 36.2412C20.7026 36.1012 20.4726 35.9412 20.2426 35.7712L17.3026 37.2512L16.6026 36.5412L18.0726 33.6012C17.9026 33.3712 17.7426 33.1412 17.6026 32.9012L14.3226 33.1412L13.9426 32.2112L16.4226 30.0612C16.3578 29.7902 16.3044 29.5166 16.2626 29.2412L13.1426 28.2012V27.2012L16.2626 26.1612C16.3026 25.9112 16.3426 25.6712 16.4026 25.4312L13.9426 23.1912L14.3226 22.2612L17.6526 22.4212C17.7626 22.2312 17.8826 22.0512 18.0126 21.8812L16.5926 18.8612L17.3026 18.1612L20.3226 19.5712C20.4926 19.4412 20.6726 19.3212 20.8626 19.2112L20.7026 15.8812L21.6326 15.5012L23.8726 17.9612C23.8726 17.9612 24.2926 17.8612 24.5126 17.8312L25.6426 14.7012H26.6426ZM26.1426 25.7012C25.6121 25.7012 25.1034 25.9119 24.7284 26.287C24.3533 26.662 24.1426 27.1707 24.1426 27.7012C24.1426 28.2316 24.3533 28.7403 24.7284 29.1154C25.1034 29.4905 25.6121 29.7012 26.1426 29.7012C26.673 29.7012 27.1817 29.4905 27.5568 29.1154C27.9319 28.7403 28.1426 28.2316 28.1426 27.7012C28.1426 27.1707 27.9319 26.662 27.5568 26.287C27.1817 25.9119 26.673 25.7012 26.1426 25.7012Z" fill="#7A73FF"/>
<mask id="mask0_4403_2" style="mask-type:luminance" maskUnits="userSpaceOnUse" x="0" y="0" width="33" height="26">
<path d="M28.1426 0.701172C29.2034 0.701172 30.2209 1.1226 30.971 1.87275C31.7211 2.62289 32.1426 3.64031 32.1426 4.70117V21.7012C32.1426 22.762 31.7211 23.7795 30.971 24.5296C30.2209 25.2797 29.2034 25.7012 28.1426 25.7012H4.14258C3.08171 25.7012 2.0643 25.2797 1.31415 24.5296C0.564006 23.7795 0.142578 22.762 0.142578 21.7012V4.70117C0.142578 3.64031 0.564006 2.62289 1.31415 1.87275C2.0643 1.1226 3.08171 0.701172 4.14258 0.701172H28.1426ZM4.94258 5.87117L4.27258 6.62117C4.19489 6.70865 4.15035 6.82061 4.14669 6.93755C4.14304 7.05449 4.18051 7.16901 4.25258 7.26117L4.31258 7.32117L7.60258 10.2412L4.30258 13.1612C4.20685 13.2506 4.15008 13.3741 4.14447 13.505C4.13886 13.636 4.18486 13.7638 4.27258 13.8612L4.93258 14.6212C5.11258 14.8212 5.43258 14.8412 5.63258 14.6612L10.6026 10.2412L5.64258 5.83117C5.54397 5.7447 5.41533 5.70043 5.28439 5.70792C5.15345 5.7154 5.03069 5.77403 4.94258 5.87117Z" fill="white"/>
</mask>
<g mask="url(#mask0_4403_2)">
<path d="M26.6426 14.7012L27.7726 17.8312L28.4126 17.9612L30.6526 15.5012L31.5826 15.8812L31.4226 19.2112C31.6126 19.3212 31.7926 19.4412 31.9626 19.5712L34.9826 18.1512L35.6826 18.8612L34.2726 21.8812C34.4026 22.0512 34.5226 22.2312 34.6326 22.4212L37.9626 22.2612L38.3426 23.1912L35.8826 25.4312C35.9326 25.6412 35.9826 25.8512 36.0126 26.0712L39.1426 27.2012V28.2012L36.0126 29.3312C35.9726 29.5812 35.9126 29.8312 35.8626 30.0612L38.3426 32.2112L37.9626 33.1412L34.6826 32.9012C34.5426 33.1412 34.3826 33.3712 34.2126 33.6012L35.6926 36.5412L34.9826 37.2412L32.0426 35.7712C31.8126 35.9412 31.5826 36.1012 31.3426 36.2412L31.5826 39.5212L30.6526 39.9012L28.5026 37.4212C28.2326 37.4812 27.9626 37.5412 27.6826 37.5812L26.6426 40.7012H25.6426L24.6026 37.5812C24.3226 37.5412 24.0526 37.4812 23.7826 37.4212L21.6326 39.9012L20.7026 39.5212L20.9426 36.2412C20.7026 36.1012 20.4726 35.9412 20.2426 35.7712L17.3026 37.2512L16.6026 36.5412L18.0726 33.6012C17.9026 33.3712 17.7426 33.1412 17.6026 32.9012L14.3226 33.1412L13.9426 32.2112L16.4226 30.0612C16.3578 29.7902 16.3044 29.5166 16.2626 29.2412L13.1426 28.2012V27.2012L16.2626 26.1612C16.3026 25.9112 16.3426 25.6712 16.4026 25.4312L13.9426 23.1912L14.3226 22.2612L17.6526 22.4212C17.7626 22.2312 17.8826 22.0512 18.0126 21.8812L16.5926 18.8612L17.3026 18.1612L20.3226 19.5712C20.4926 19.4412 20.6726 19.3212 20.8626 19.2112L20.7026 15.8812L21.6326 15.5012L23.8726 17.9612C23.8726 17.9612 24.2926 17.8612 24.5126 17.8312L25.6426 14.7012H26.6426ZM26.1426 25.7012C25.6121 25.7012 25.1034 25.9119 24.7284 26.287C24.3533 26.662 24.1426 27.1707 24.1426 27.7012C24.1426 28.2316 24.3533 28.7403 24.7284 29.1154C25.1034 29.4905 25.6121 29.7012 26.1426 29.7012C26.673 29.7012 27.1817 29.4905 27.5568 29.1154C27.9319 28.7403 28.1426 28.2316 28.1426 27.7012C28.1426 27.1707 27.9319 26.662 27.5568 26.287C27.1817 25.9119 26.673 25.7012 26.1426 25.7012Z" fill="#CCFFFF"/>
</g>
</svg>
