<svg width="40" height="34" viewBox="0 0 40 34" fill="none" xmlns="http://www.w3.org/2000/svg">
<path d="M26.1426 8.85108V19.7411C26.1426 20.5044 25.9241 21.2519 25.513 21.8951C25.1019 22.5383 24.5154 23.0505 23.8226 23.3711L14.8226 27.5211C14.296 27.7648 13.7228 27.891 13.1426 27.891C12.5624 27.891 11.9891 27.7648 11.4626 27.5211L2.46258 23.3711C1.7698 23.0505 1.18324 22.5383 0.772144 21.8951C0.36105 21.2519 0.142597 20.5044 0.142578 19.7411V8.85108C0.144865 8.29256 0.264091 7.74072 0.492579 7.23108L13.1426 13.0711L25.7926 7.23108C26.0211 7.74072 26.1403 8.29256 26.1426 8.85108ZM14.8226 1.07108L23.8226 5.22108C24.2594 5.42498 24.6558 5.70617 24.9926 6.05107L13.1426 11.5211L1.28258 6.05107C1.62236 5.70518 2.02219 5.42394 2.46258 5.22108L11.4626 1.07108C11.9891 0.827392 12.5624 0.701172 13.1426 0.701172C13.7228 0.701172 14.296 0.827392 14.8226 1.07108Z" fill="#00D4FF"/>
<path d="M39.1426 14.8511V25.7411C39.1426 26.5044 38.9241 27.2519 38.513 27.8951C38.1019 28.5383 37.5154 29.0505 36.8226 29.3711L27.8226 33.5211C27.296 33.7648 26.7228 33.891 26.1426 33.891C25.5624 33.891 24.9891 33.7648 24.4626 33.5211L15.4626 29.3711C14.7698 29.0505 14.1832 28.5383 13.7721 27.8951C13.3611 27.2519 13.1426 26.5044 13.1426 25.7411V14.8511C13.1449 14.2926 13.2641 13.7407 13.4926 13.2311L26.1426 19.0711L38.7926 13.2311C39.0211 13.7407 39.1403 14.2926 39.1426 14.8511ZM27.8226 7.07108L36.8226 11.2211C37.2594 11.425 37.6558 11.7062 37.9926 12.0511L26.1426 17.5211L14.2826 12.0511C14.6224 11.7052 15.0222 11.4239 15.4626 11.2211L24.4626 7.07108C24.9891 6.82739 25.5624 6.70117 26.1426 6.70117C26.7228 6.70117 27.296 6.82739 27.8226 7.07108Z" fill="#7A73FF"/>
</svg>
